<?xml version="1.0" encoding="utf-8"?>
<!-- Generator: Adobe Illustrator 14.0.0, SVG Export Plug-In . SVG Version: 6.00 Build 43363)  -->
<!DOCTYPE svg PUBLIC "-//W3C//DTD SVG 1.1//EN" "http://www.w3.org/Graphics/SVG/1.1/DTD/svg11.dtd">
<svg version="1.1" id="Layer_1" xmlns="http://www.w3.org/2000/svg" xmlns:xlink="http://www.w3.org/1999/xlink" x="0px" y="0px"
	 width="422.551px" height="438.193px" viewBox="0 0 422.551 438.193" enable-background="new 0 0 422.551 438.193"
	 xml:space="preserve">
<g>
	<path fill="#EAE287" stroke="#BF4F1F" stroke-width="3" d="M387.443,206.534c32.884-24.591,34.287-54.88,32.452-80.752
		c-0.758-10.738-5.018-30.348-17.935-30.385c-9.039-0.026-14.999,25.492-32.922,33.642c-8.866,4.03-40.107,9.84-48.904,16.419
		c-32.885,24.591-34.283,49.374-19.325,69.379C315.771,234.843,354.556,231.126,387.443,206.534z"/>
	<path fill="#FCBF49" stroke="#BF4F1F" stroke-width="3" d="M323.703,375.322c20.657,11.498,56.402,11.333,73.193-11.179
		c16.794-22.507-2.004-43.65,2.845-66.654c2.162-10.254,7.624-12.615,14.035-10.847c0,0-4.817-14.209-21.549-11.927
		c0,0,4.541-10.798,12.342-5.058c0,0-18.743-14.097-29.873,13.562c0,0-0.958-17.194-3.862-21.676c0,0-8.24,37.196-38.322,42.513
		C302.434,309.372,323.703,375.322,323.703,375.322z"/>
	<path fill="#003049" stroke="#BF4F1F" stroke-width="3" d="M178.636,374.378c0,0-51.549,17.241-87.305,18.597
		c-35.753,1.358-67.348-11.945-73.168-18.597c-5.82-6.653-24.945-40.306,0-87.918c7.42-14.164,22.404-29.755,28.27-25.164
		c11.264,8.817,21.408,11.072,34.091,19.956c12.684,8.885,47.395,27.439,64.854,17.46
		C162.839,288.734,178.636,374.378,178.636,374.378z"/>
	<path fill="#003049" stroke="#BF4F1F" stroke-width="3" d="M125.422,310.353c0,0-9.144,9.979-14.133,0
		c-4.991-9.978-18.295-21.619-30.766-29.101c-12.472-7.483-0.832-19.459,11.639-28.606c12.473-9.145,21.785-8.81,33.259-27.103
		s12.278-29.086,31.597-39.912c0,0,57.373-18.291,49.059,12.473C197.76,228.869,136.232,302.038,125.422,310.353z"/>
	<path fill="#003049" stroke="#BF4F1F" stroke-dasharray="12" d="M92.385,287.191c-12.471-7.484-0.832-19.459,11.642-28.606
		c12.474-9.146,21.784-8.811,33.26-27.103c11.473-18.292,12.277-29.088,31.595-39.911c0,0,57.374-18.292,49.057,12.472"/>
	<circle fill="#BF4F1F" stroke="#BF4F1F" stroke-width="2" cx="147.873" cy="87.185" r="13.303"/>
	<path fill="#FCBF49" stroke="#BF4F1F" stroke-width="3" d="M307.569,145.619c0,0,0-0.001,0-0.002
		c-2.548-45.128-6.705-71.734-33.194-104.708C247.577,7.551,191.939,4.371,191.939,4.371l3.329,22.45l-10.812-22.45
		c-22.449,0.831-36.583,17.461-36.583,17.461c10.026,2.673,23.807,16.094,31.854,29.46c1.963,3.262,3.589,6.52,4.729,9.619
		c0,0,3.571-7.666,10.988-13.363l23.007-5.479h0.001h0.002c6.155,1.097,13.395,3.199,20.049,7.202
		c20.858,12.543,54.51,42.663,55.945,71.31c2.004,2.452,2.924,4.177,2.924,4.177C301.11,131.811,304.506,138.767,307.569,145.619z"
		/>
	<path fill="#003049" stroke="#BF4F1F" stroke-width="3" d="M325.809,208.609c-1.911-19.337-8.223-40.579-18.24-62.99
		c-3.063-6.853-6.458-13.809-10.196-20.861c0,0-0.92-1.725-2.924-4.177c-5.678-6.955-20.134-19.832-47.63-16.434
		c-33.631,4.158-62.362,88.968-63.906,97.817s-2.613,29.399-25.062,52.68c-22.449,23.281-32.428,54.047-32.428,72.339
		c0,18.293,14.136,41.575,45.877,59.035c31.742,17.461,83.002,24.113,117.095,0c34.089-24.113,24.943-44.901,37.415-74.002
		C338.281,282.914,328.303,233.857,325.809,208.609z"/>
	<path fill="none" stroke="#BF4F1F" stroke-dasharray="12" d="M272.093,104.147c-33.629,4.158-62.358,88.968-63.902,97.817
		c-1.547,8.849-2.613,29.399-25.063,52.68c-22.451,23.281-32.428,54.047-32.428,72.339c0,18.293,14.136,52.216,45.877,69.677"/>
	<path fill="#003049" stroke="#BF4F1F" stroke-width="3" d="M212.462,180.639c7.351-3.417,15.796-5.621,25.21-8.311
		c14.104-4.031,38.836-10.238,50.543-28.691c2.785-4.389,4.839-9.466,5.829-15.377c5.156-30.764-32.805-65.316-55.542-78.989
		c-6.654-4.003-13.894-6.104-20.049-7.202h-0.003c-22.311-0.777-37.132,12.781-37.132,12.781s-0.564-2.244-1.593-3.558
		c-14.7,9.33-29.594,23.769-41,40.384c-3.508,5.109-6.682,9.806-9.542,14.14"/>
	<path fill="#003049" stroke="#BF4F1F" stroke-width="2" d="M137.167,105.816"/>
	<path fill="#003049" stroke="#BF4F1F" stroke-width="2" d="M146.709,91.677"/>
	<path fill="#003049" stroke="#BF4F1F" stroke-dasharray="12" d="M181.399,55.655c-12.761,9.227-25.303,22.02-35.213,36.456"/>
	<circle fill="#BF4F1F" stroke="#BF4F1F" stroke-width="2" cx="218.453" cy="79.204" r="13.304"/>
	<path fill="#003049" stroke="#BF4F1F" stroke-width="2" d="M129.414,105.977c10.809-10.809,8.315-12.472,21.62,0
		c13.304,12.473,20.953,13.97,36.749,26.441c15.8,12.472,4.157,20.787,9.978,27.439c5.822,6.652,18.594,10.803,14.702,20.784"/>
	<path fill="#EAE287" stroke="#BF4F1F" stroke-width="3" d="M129.258,105.937c10.809-10.811,8.429-12.395,21.73,0.079
		c13.306,12.472,20.954,13.968,36.751,26.441c15.801,12.473,4.161,20.787,9.979,27.437c5.822,6.653,18.594,10.804,14.701,20.786
		h0.001c-6.285,2.92-11.765,6.727-16.364,12.474c-9.979,12.474-20.29,8.814-31.099,10.172l34.422-25.138
		c-11.642,5.821-16.627,7.483-25.774,17.461c-9.147,9.979-26.608,15.799-33.26,11.64c-6.651-4.156,0-10.808-4.157-15.797
		c-4.157-4.988-10.809-0.831-22.449-19.124C103.167,155.753,100.94,148.822,129.258,105.937L129.258,105.937z"/>
	
		<ellipse transform="matrix(-0.7962 -0.605 0.605 -0.7962 154.8014 343.6414)" fill="#003049" stroke="#BF4F1F" stroke-width="3" cx="135.27" cy="145.752" rx="6.119" ry="12.033"/>
	<path fill="#003049" stroke="#BF4F1F" stroke-width="3" d="M307.517,166.509c-11.964-7.576-21.621,18.292-24.946,34.922
		c-3.326,16.629,1.072,34.332,6.152,46.562c4.793,11.537,4.251,28.958,0.667,43.238c-4.157,16.563-13.857,17.979,0.664,49.058
		c14.524,31.076,28.91,60.696,41.895,50.719c12.983-9.978,51.229-40.463,32.107-111.277
		C344.932,208.914,332.45,182.296,307.517,166.509z"/>
	<path fill="none" stroke="#BF4F1F" stroke-dasharray="12" d="M307.517,166.509c-11.964-7.576-21.621,18.292-24.946,34.922
		c-3.326,16.629,15.706,34.332,20.789,46.562c4.791,11.537,4.249,28.958,0.664,43.238c-4.158,16.563-13.857,17.979,0.666,49.058"/>
	<path fill="#003049" stroke="#BF4F1F" stroke-width="3" d="M317.004,386.242c-3.935,41.142-30.054,52.253-60.682,49.324
		c-30.628-2.931-54.165-18.791-50.229-59.934c3.935-41.14,33.853-91.983,64.481-89.054
		C301.202,289.511,320.939,345.102,317.004,386.242z"/>
	<path fill="none" stroke="#BF4F1F" stroke-width="3" d="M415.806,111.046c-9.04-0.028-15,25.494-32.923,33.64
		c-8.862,4.033-40.105,9.844-48.903,16.421"/>
	<path fill="none" stroke="#BF4F1F" stroke-dasharray="12" d="M408.696,97.837c-9.041-0.028-15.001,25.494-32.923,33.64
		c-8.863,4.032-40.108,9.844-48.904,16.421l-13.875,11.175"/>
	<path fill="none" stroke="#BF4F1F" stroke-width="3" d="M420.389,141.343c-6.493,6.919-14.444,15.763-25.179,18.527
		c-9.5,2.449-41.114,2.681-51.012,7.678"/>
	<path fill="none" stroke="#BF4F1F" stroke-width="3" d="M414.007,171.8c-2.597,0.953-5.31,1.614-8.135,1.833
		c-9.405,0.731-39.377-4.327-49.585-1.247"/>
	<path fill="none" stroke="#BF4F1F" stroke-width="3" d="M406.137,187.912c-12.527-3.163-31.082-8.853-39.152-7.892"/>
	<path fill="none" stroke="#BF4F1F" stroke-width="3" d="M398.758,195.891c-8.218-3.679-16.274-6.903-21.091-7.175"/>
	<circle fill="#003049" cx="218.763" cy="79.204" r="8.333"/>
	<path fill="none" stroke="#BF4F1F" stroke-width="3" d="M43.061,260.754c14.84,2.434,22.579,30.593,17.285,62.899
		c-5.293,32.305-21.615,56.522-36.456,54.09"/>
</g>
</svg>
