<?xml version="1.0" encoding="utf-8"?>
<!-- Generator: Adobe Illustrator 14.0.0, SVG Export Plug-In . SVG Version: 6.00 Build 43363)  -->
<!DOCTYPE svg PUBLIC "-//W3C//DTD SVG 1.1//EN" "http://www.w3.org/Graphics/SVG/1.1/DTD/svg11.dtd">
<svg version="1.1" id="Layer_1" xmlns="http://www.w3.org/2000/svg" xmlns:xlink="http://www.w3.org/1999/xlink" x="0px" y="0px"
	 width="456.254px" height="438.193px" viewBox="0 0 456.254 438.193" enable-background="new 0 0 456.254 438.193"
	 xml:space="preserve">
<g>
	<path fill="#EAE287" stroke="#BF4F1F" stroke-width="3" d="M173.627,59.549c0,0-6.292-25.562-34.866-27.972
		c-28.571-2.41-59.135,3.211-59.135,3.211s49.155,9.43,57.929,16.76c8.771,7.331,14.366,21.785,14.366,21.785L173.627,59.549z"/>
	<path fill="#EAE287" stroke="#BF4F1F" stroke-width="3" d="M218.945,55.693c0,0-4.489-25.563-24.858-27.972
		c-20.371-2.41-21.69,3.211-21.69,3.211s13.038,0.045,20.829,16.76c4.072,8.733,10.243,21.785,10.243,21.785L218.945,55.693z"/>
	<ellipse fill="#003049" cx="279.326" cy="182.964" rx="30.415" ry="10.806"/>
	<path fill="#003049" stroke="#BF4F1F" stroke-width="3" d="M416.708,203.315c9.777,32.926-13.85,53.027-41.352,53.027
		c-20.165,0-21.682-25.861-61.391-22.439c-62.374,5.372-115.849,60.117-171.973,53.393c-56.124-6.724-56.979-52.81-73.79-111.776
		c-3.212-11.265-19.783-17.223-32.094,29.847c-12.313,47.071,19.19,103.92,49.198,131.454l-20.771,14.295
		C31.261,320.583-3.671,257.544,9.98,205.35c13.651-52.196,44.568-70.784,70.667-59.683c26.1,11.101,3.214,111.018,65.444,118.475
		c62.236,7.457,98.485-52.497,167.873-50.36c52.152,1.606,52.957,22.328,60.185,25.496c7.229,3.167,31.719,0.55,20.877-35.962
		H416.708z"/>
	<path fill="#003049" stroke="#BF4F1F" stroke-width="3" d="M245.665,75.864c0,0,19.677-13.851,41.358-13.451
		c0,0,16.462-5.902,19.675-13.391c0,0,5.22,31.86-9.637,39.087c-14.859,7.227-28.979-6.023-40.387,0L245.665,75.864z"/>
	<path fill="#003049" stroke="#BF4F1F" stroke-width="3" d="M243.171,376.736c0,0,49.579,16.583,83.96,17.887
		c34.385,1.305,64.771-11.489,70.373-17.887c5.596-6.397,23.989-38.761,0-84.553c-23.991-45.789-19.194-35.395-27.189-24.199
		c-7.997,11.196-20.588,10.647-32.785,19.192c-12.198,8.545-45.581,26.39-62.374,16.793
		C258.364,294.373,243.171,376.736,243.171,376.736z"/>
	<path fill="#003049" stroke="#BF4F1F" stroke-width="3" d="M294.345,315.163c0,0,8.797,9.595,13.597,0
		c4.799-9.596,17.591-20.79,29.588-27.988c11.995-7.196,0.797-18.715-11.195-27.511c-11.993-8.794-20.951-8.472-31.989-26.065
		c-11.033-17.593-11.807-27.974-30.385-38.382c0,0-55.175-17.593-47.179,11.993C224.778,236.796,283.95,307.167,294.345,315.163z"/>
	<path fill="none" stroke="#BF4F1F" stroke-dasharray="12" d="M331.505,290.789c11.997-7.196,0.802-18.715-11.195-27.511
		c-11.994-8.795-20.952-8.472-31.984-26.066c-11.035-17.592-11.809-27.972-30.387-38.383c0,0-55.178-17.592-47.18,11.994"/>
	<path fill="#003049" stroke="#BF4F1F" stroke-width="3" d="M128.981,136.671c-15.356,28.958-24.95,56.359-27.35,80.641
		c-2.397,24.283-11.994,71.463,0,99.45c11.993,27.989,3.198,47.98,35.984,71.17s82.081,16.792,112.607,0
		c30.529-16.794,44.121-39.183,44.121-56.777c0-17.59-9.596-47.178-31.184-69.569c-21.591-22.391-22.62-42.153-24.103-50.664
		c-1.486-8.51-29.115-90.074-61.46-94.072C141.821,112.427,128.981,136.671,128.981,136.671z"/>
	<path fill="#FCBF49" stroke="#BF4F1F" stroke-width="2" d="M256.675,103.802c0,6.653,5.391,12.044,12.044,12.044
		s12.047-5.391,12.047-12.044c0-6.655-5.394-12.046-12.047-12.046S256.675,97.147,256.675,103.802z"/>
	<path fill="#003049" stroke="#BF4F1F" stroke-width="3" d="M119.224,176.825c11.507-7.286,20.792,17.591,23.99,33.585
		c3.197,15.993-3.677,34.385-11.035,44.78c-7.354,10.395-9.435,26.387-3.197,41.582c6.235,15.193,21.003,17.292,7.035,47.181
		c-13.967,29.886-27.802,58.373-40.291,48.776c-12.485-9.595-49.271-38.913-30.876-107.018
		C83.24,217.606,95.245,192.006,119.224,176.825z"/>
	<path fill="none" stroke="#BF4F1F" stroke-dasharray="12" d="M119.921,175.93c12.307-5.824,17.277,20.002,18.499,36.267
		c1.222,16.261-7.852,33.675-16.422,43.095c-8.574,9.417-12.592,25.037-8.257,40.879c4.334,15.842,18.733,19.729,1.22,47.686"/>
	<path fill="#003049" stroke="#BF4F1F" stroke-width="3" d="M201.272,52.37c9.462-0.397,20.643,0.006,32.318,8.839
		c11.675,8.832,23.717,9.235,30.545,25.294c6.826,16.061,38.143,33.156,49.388,39.666c11.242,6.508,25.294,17.35,18.065,41.038
		c-7.227,23.689-7.942,26.394-16.418,18.415"/>
	<path fill="#003049" stroke="#BF4F1F" stroke-width="3" d="M225.993,184.069c11.241,2.811,18.468,6.826,33.325,0
		c14.856-6.826,26.293-8.432,35.026,0c8.738,8.431,19.17,11.411,23.793-5.737c4.62-17.147,18.27-34.011-9.834-48.466
		c-28.105-14.454-62.233-36.94-75.084-53.401c-12.849-16.461-32.923-26.098-42.961-27.303c-10.038-1.203-32.091,5.219-48.971,21.279
		c-16.878,16.062-28.119,60.229-23.703,79.901c4.416,19.673,22.457,14.857,33.514,20.477c11.056,5.621,8.271,23.537,47.194,28.506
		c38.93,4.968,74.472-4.416,96.052,2.008c21.587,6.424,30.368-4.417,32.001-9.235c1.633-4.818,0-6.423,0-6.423
		s-0.487-2.812-9.064-4.417"/>
	<circle fill="#FCBF49" stroke="#BF4F1F" stroke-width="2" cx="186.539" cy="108.134" r="12.047"/>
	<path fill="#003049" stroke="#BF4F1F" stroke-width="3" d="M292.357,139.696c0.827-1.42,6.292,0.213,12.209,3.651
		c5.915,3.439,10.041,7.379,9.217,8.803"/>
	<path fill="#003049" stroke="#BF4F1F" stroke-width="3" d="M156.511,91.628c0,0-22.063-39.358-77.823-19.108
		c0,0-30.985-8.383-37.026-19.021c0,0-5.134,49.089,24.131,54.635c38.454,7.288,41.756-17.804,70.003,0.889"/>
	<path fill="#FCBF49" d="M283.408,313.064c0,44.091-25.165,79.836-56.212,79.836c-31.04,0-56.21-35.745-56.21-79.836
		c0-44.093,25.17-79.839,56.21-79.839C258.243,233.226,283.408,268.971,283.408,313.064z"/>
	<ellipse fill="#FCBF49" cx="186.62" cy="257.816" rx="22.86" ry="24.587"/>
	<path fill="#BF4F1F" stroke="#BF4F1F" stroke-width="2" d="M188.039,209.788l18.983,54.353l60.4-1.978l1.296-34.33
		c4.183-4.516,6.022-3.614,6.022-3.614c-2.138-2.709-10.84-1.205-10.84-1.205c5.689-1.906,5.498-19.012,5.498-19.012
		c-1.748,3.254-1.648,7.268-10.581,10.279c-14.125,4.76-17.768,24.995-17.768,24.995s0.515-14.806-15.959-25.597
		C208.615,202.891,188.039,209.788,188.039,209.788"/>
	<path fill="#BF4F1F" stroke="#BF4F1F" stroke-width="2" d="M257.877,234.76c1.075-0.857,9.305-10.884,22.889-6.023
		c0,0-8.096,10.842-8.699,12.95"/>
	<polyline fill="#003049" stroke="#BF4F1F" stroke-width="3" points="352.781,292.706 363.397,259.666 383.081,288.412 
		379.972,270.996 	"/>
	<path fill="#BF4F1F" stroke="#BF4F1F" stroke-width="2" d="M285.589,247.559c0,0,4.801-3.463,11.074-1.658
		c6.271,1.808,16.66,7.229,23.284,2.41c0,0-7.828,10.667-14.306,10.077c0,0,10.459,6.14,15.913,4.778c0,0-5.029,4.951-7.59,6.022
		c0,0,6.734,3.213,11.704,7.881c4.967,4.667,7.547,1.103,11.543,2.358c0,0-10.193,14.335-17.723,9.797c0,0,1.462,3.481,3.47,14.997
		c1.882,10.804-4.471,15.207-4.471,15.207"/>
	<path fill="#FCBF49" stroke="#BF4F1F" stroke-width="3" d="M265.442,247.408c0.801-6.827,3.713-16.062,14.455-12.85
		c10.738,3.213,6.84,15.765,2.305,19.072"/>
	<path fill="#FCBF49" stroke="#BF4F1F" stroke-width="3" d="M305.008,286.744c0,0-5.205-31.205-37.494-40.038
		c-32.287-8.834-54.77-2.812-66.013,5.62c-11.242,8.431-11.645,12.044-11.645,12.044"/>
	<path fill="none" stroke="#BF4F1F" stroke-dasharray="12" d="M282.12,285.539c0,0-5.205-31.204-37.491-40.038"/>
	<path fill="#EAE287" stroke="#BF4F1F" stroke-width="2" d="M282.202,269.188c0,6.654,5.397,12.046,12.046,12.046
		c6.65,0,12.045-5.392,12.045-12.046c0-6.652-5.395-12.045-12.045-12.045C287.6,257.144,282.202,262.537,282.202,269.188z"/>
	<circle fill="#EAE287" stroke="#BF4F1F" stroke-width="2" cx="227.199" cy="276.187" r="12.045"/>
	<path fill="#FCBF49" stroke="#BF4F1F" stroke-width="3" d="M216.704,393.464c17.156,1.8,59.884,4.208,79.959-17.474
		c20.07-21.682,24.489-45.773,20.473-62.233c-4.015-16.461-5.391-29.711-24.778-30.515c-19.387-0.805-42.049,3.212-49.187,14.053"/>
	<path fill="none" stroke="#BF4F1F" stroke-dasharray="12" d="M232.364,393.464c17.24,0.501,28.563,4.208,48.639-17.474
		c20.073-21.682,24.492-45.773,20.472-62.233c-4.014-16.461-5.391-29.711-24.778-30.515"/>
	<path fill="#BF4F1F" stroke="#BF4F1F" stroke-width="2" d="M122.09,303.345l72.944,103.963c0,0,25.738-7.628,36.179-36.937
		c0,0-12.045,7.227-17.667,6.021c0,0,9.368-9.234,8.299-25.295c0,0-2.378,2.836-5.141,4.23c0,0,2.061-13.865-2.754-18.685
		c0,0-3.286,8.835-9.072,10.039c0,0,16.696-27.652,4.854-43.336c0,0-15.484,18.44-21.693,18.844c0,0,3.423-12.393,3.825-18.844
		c0,0-5.619,2.384-10.035,2.784c0,0-1.42-21.684,4.707-27.303c0,0-30.86-14.452-16.381-33.324
		c14.481-18.872,32.091,4.415,31.117,7.828c0,0,3.545-27.877,0-32.421c-8.882-11.377-32.192-17.593-32.192-17.593
		c4.817,2.583,3.012,14.883,3.012,14.883c-18.67-4.819-31.92,6.926-31.92,6.926c9.636-1.205,27.702,5.119,27.702,5.119
		c-32.22-2.107-40.65,19.574-40.65,19.574c7.827-9.636,33.728-3.313,33.728-3.313c-43.366,13.25-41.255,47.704-41.255,47.704
		c4.215-11.92,27.4-9.135,27.4-9.135C123.007,285.696,122.09,303.345,122.09,303.345"/>
	<path fill="#003049" stroke="#BF4F1F" stroke-width="3" d="M125.939,299.711c-19.701,16.499-31.16,56.886-28.143,88.437
		c3.785,39.566,28.903,50.252,58.357,47.437c29.457-2.815,52.099-18.074,48.309-57.64c-3.167-33.097-23.815-72.719-47.724-83.146
		l-10.066,34.018L125.939,299.711z"/>
	<path fill="#003049" stroke="#BF4F1F" stroke-width="2" d="M305.008,286.744"/>
	<path fill="#003049" stroke="#BF4F1F" stroke-width="3" d="M308.696,290.059c0,0,0.207,4.327-1.7,5.531
		c0,0-3.097-3.728-5.622-2.009c-4.711,3.213,0.5,5.521,2.711,4.417l-6.222,6.223l-8.932-4.216c0,0,5.42-4.617,0-6.625
		c-5.419-2.009-5.722,5.12-5.722,5.12s-7.829-0.946-8.234-5.794c-0.399-4.847,2.309-8.731,12.246-9.563
		C303.702,281.764,308.696,290.059,308.696,290.059z"/>
	<circle fill="#FCBF49" stroke="#BF4F1F" stroke-width="2" cx="364.809" cy="171.924" r="12.045"/>
	<path fill="#003049" stroke="#BF4F1F" stroke-width="3" d="M429.473,133.697l-23.854,41.321l-23.859-41.321
		c-12.108,7.832-20.104,21.479-20.104,36.973c0,24.281,19.685,43.966,43.964,43.966c24.28,0,43.967-19.685,43.967-43.966
		C449.586,155.174,441.584,141.528,429.473,133.697z"/>
	<circle fill="#FCBF49" stroke="#BF4F1F" stroke-width="2" cx="384.081" cy="173.18" r="12.046"/>
	<path fill="none" stroke="#BF4F1F" stroke-width="3" d="M41.371,54.712c0.491,14.897,4.425,39.012,24.421,42.801
		c38.457,7.29,41.751-17.808,70.003,0.888"/>
	<path fill="none" stroke="#BF4F1F" stroke-width="3" d="M262.933,324.597c8.435,12.045,40.19,9.636,40.954-6.023
		c0,0-1.675,10.51,6.021,9.236c7.59-1.26,7.554-8.334,7.59-10.792"/>
	<ellipse fill="#003049" cx="186.542" cy="108.134" rx="8.334" ry="4.332"/>
	<path fill="#003049" d="M392.417,172.607c0,2.394-3.734,4.332-8.333,4.332c-4.605,0-8.336-1.938-8.336-4.332
		c0-2.392,3.73-4.332,8.336-4.332C388.683,168.275,392.417,170.215,392.417,172.607z"/>
	
		<ellipse transform="matrix(0.1791 0.9838 -0.9838 0.1791 459.2157 3.3595)" fill="#003049" cx="227.595" cy="276.85" rx="6.872" ry="1.843"/>
	<path fill="#003049" d="M295.877,275.983c-1.001,0.182-2.366-2.696-3.045-6.431c-0.68-3.733-0.418-6.908,0.584-7.09
		c1.003-0.183,2.364,2.697,3.046,6.429C297.139,272.625,296.879,275.799,295.877,275.983z"/>
</g>
</svg>
