<?xml version="1.0" encoding="utf-8"?>
<!-- Generator: Adobe Illustrator 14.0.0, SVG Export Plug-In . SVG Version: 6.00 Build 43363)  -->
<!DOCTYPE svg PUBLIC "-//W3C//DTD SVG 1.1//EN" "http://www.w3.org/Graphics/SVG/1.1/DTD/svg11.dtd">
<svg version="1.1" id="Layer_1" xmlns="http://www.w3.org/2000/svg" xmlns:xlink="http://www.w3.org/1999/xlink" x="0px" y="0px"
	 width="805.667px" height="438.193px" viewBox="0 0 805.667 438.193" enable-background="new 0 0 805.667 438.193"
	 xml:space="preserve">
<g>
	<path fill="#EAE287" stroke="#BF4F1F" stroke-width="3" d="M527.708,59.549c0,0-6.292-25.562-34.866-27.972
		c-28.571-2.41-59.135,3.211-59.135,3.211s49.155,9.43,57.929,16.76c8.771,7.331,14.366,21.785,14.366,21.785L527.708,59.549z"/>
	<path fill="#EAE287" stroke="#BF4F1F" stroke-width="3" d="M573.026,55.693c0,0-4.489-25.563-24.858-27.972
		c-20.371-2.41-21.69,3.211-21.69,3.211s13.038,0.045,20.829,16.76c4.072,8.733,10.243,21.785,10.243,21.785L573.026,55.693z"/>
	<ellipse fill="#003049" cx="633.407" cy="182.964" rx="30.415" ry="10.806"/>
	<path fill="#003049" stroke="#BF4F1F" stroke-width="3" d="M770.789,203.315c9.776,32.926-13.851,53.027-41.353,53.027
		c-20.165,0-21.682-25.861-61.391-22.439c-62.374,5.372-115.849,60.117-171.973,53.393c-56.124-6.724-56.979-52.81-73.79-111.776
		c-3.212-11.265-19.784-17.223-32.094,29.847c-12.312,47.071,19.191,103.92,49.199,131.454l-20.771,14.295
		c-33.275-30.531-68.207-93.571-54.556-145.765c13.651-52.196,44.568-70.784,70.667-59.683
		c26.1,11.101,3.214,111.018,65.444,118.475c62.236,7.457,98.485-52.497,167.873-50.36c52.152,1.606,52.957,22.328,60.185,25.496
		c7.229,3.167,31.719,0.55,20.877-35.962H770.789z"/>
	<path fill="#003049" stroke="#BF4F1F" stroke-width="3" d="M599.746,75.864c0,0,19.677-13.851,41.358-13.451
		c0,0,16.462-5.902,19.675-13.391c0,0,5.22,31.86-9.637,39.087c-14.859,7.227-28.979-6.023-40.387,0L599.746,75.864z"/>
	<path fill="#003049" stroke="#BF4F1F" stroke-width="3" d="M597.251,376.736c0,0,49.579,16.583,83.96,17.887
		c34.385,1.305,64.771-11.489,70.373-17.887c5.596-6.397,23.988-38.761,0-84.553c-23.991-45.789-19.194-35.395-27.189-24.199
		c-7.997,11.196-20.588,10.647-32.785,19.192c-12.198,8.545-45.581,26.39-62.374,16.793
		C612.445,294.373,597.251,376.736,597.251,376.736z"/>
	<path fill="#003049" stroke="#BF4F1F" stroke-width="3" d="M648.425,315.163c0,0,8.797,9.595,13.597,0
		c4.799-9.596,17.591-20.79,29.588-27.988c11.995-7.196,0.797-18.715-11.195-27.511c-11.993-8.794-20.951-8.472-31.989-26.065
		c-11.033-17.593-11.807-27.974-30.385-38.382c0,0-55.175-17.593-47.179,11.993C578.859,236.796,638.031,307.167,648.425,315.163z"
		/>
	<path fill="none" stroke="#BF4F1F" stroke-dasharray="12" d="M685.585,290.789c11.997-7.196,0.802-18.715-11.195-27.511
		c-11.994-8.795-20.952-8.472-31.984-26.066c-11.035-17.592-11.809-27.972-30.387-38.383c0,0-55.178-17.592-47.18,11.994"/>
	<path fill="#003049" stroke="#BF4F1F" stroke-width="3" d="M483.062,136.671c-15.356,28.958-24.95,56.359-27.35,80.641
		c-2.397,24.283-11.994,71.463,0,99.45c11.993,27.989,3.198,47.98,35.984,71.17s82.081,16.792,112.607,0
		c30.529-16.794,44.121-39.183,44.121-56.777c0-17.59-9.596-47.178-31.184-69.569c-21.591-22.391-22.62-42.153-24.103-50.664
		c-1.486-8.51-29.115-90.074-61.46-94.072C495.902,112.427,483.062,136.671,483.062,136.671z"/>
	<path fill="#FCBF49" stroke="#BF4F1F" stroke-width="2" d="M610.755,103.802c0,6.653,5.391,12.044,12.044,12.044
		s12.047-5.391,12.047-12.044c0-6.655-5.394-12.046-12.047-12.046S610.755,97.147,610.755,103.802z"/>
	<path fill="#003049" stroke="#BF4F1F" stroke-width="3" d="M473.304,176.825c11.507-7.286,20.792,17.591,23.99,33.585
		c3.197,15.993-3.677,34.385-11.035,44.78c-7.354,10.395-9.435,26.387-3.197,41.582c6.235,15.193,21.003,17.292,7.035,47.181
		c-13.967,29.886-27.802,58.373-40.291,48.776c-12.485-9.595-49.272-38.913-30.876-107.018
		C437.321,217.606,449.326,192.006,473.304,176.825z"/>
	<path fill="none" stroke="#BF4F1F" stroke-dasharray="12" d="M474.001,175.93c12.307-5.824,17.277,20.002,18.499,36.267
		c1.222,16.261-7.852,33.675-16.422,43.095c-8.574,9.417-12.592,25.037-8.257,40.879c4.334,15.842,18.733,19.729,1.22,47.686"/>
	<path fill="#003049" stroke="#BF4F1F" stroke-width="3" d="M555.353,52.37c9.462-0.397,20.643,0.006,32.318,8.839
		c11.675,8.832,23.717,9.235,30.545,25.294c6.826,16.061,38.143,33.156,49.388,39.666c11.242,6.508,25.294,17.35,18.065,41.038
		c-7.227,23.689-7.942,26.394-16.418,18.415"/>
	<path fill="#003049" stroke="#BF4F1F" stroke-width="3" d="M580.074,184.069c11.241,2.811,18.468,6.826,33.325,0
		c14.856-6.826,26.293-8.432,35.026,0c8.738,8.431,19.17,11.411,23.793-5.737c4.62-17.147,18.27-34.011-9.834-48.466
		c-28.105-14.454-62.233-36.94-75.084-53.401c-12.849-16.461-32.923-26.098-42.961-27.303c-10.038-1.203-32.091,5.219-48.971,21.279
		c-16.878,16.062-28.119,60.229-23.703,79.901c4.416,19.673,22.457,14.857,33.514,20.477c11.056,5.621,8.271,23.537,47.194,28.506
		c38.93,4.968,74.472-4.416,96.052,2.008c21.587,6.424,30.368-4.417,32.001-9.235c1.633-4.818,0-6.423,0-6.423
		s-0.487-2.812-9.064-4.417"/>
	<circle fill="#FCBF49" stroke="#BF4F1F" stroke-width="2" cx="540.62" cy="108.134" r="12.047"/>
	<path fill="#003049" stroke="#BF4F1F" stroke-width="3" d="M646.438,139.696c0.827-1.42,6.292,0.213,12.209,3.651
		c5.915,3.439,10.041,7.379,9.217,8.803"/>
	<path fill="#003049" stroke="#BF4F1F" stroke-width="3" d="M510.591,91.628c0,0-22.063-39.358-77.823-19.108
		c0,0-30.985-8.383-37.027-19.021c0,0-5.133,49.089,24.131,54.635c38.454,7.288,41.756-17.804,70.003,0.889"/>
	<path fill="#FCBF49" d="M637.489,313.064c0,44.091-25.165,79.836-56.212,79.836c-31.04,0-56.21-35.745-56.21-79.836
		c0-44.093,25.17-79.839,56.21-79.839C612.324,233.226,637.489,268.971,637.489,313.064z"/>
	<ellipse fill="#FCBF49" cx="540.7" cy="257.816" rx="22.86" ry="24.587"/>
	<path fill="#BF4F1F" stroke="#BF4F1F" stroke-width="2" d="M542.12,209.788l18.983,54.353l60.4-1.978l1.296-34.33
		c4.183-4.516,6.022-3.614,6.022-3.614c-2.138-2.709-10.84-1.205-10.84-1.205c5.689-1.906,5.498-19.012,5.498-19.012
		c-1.748,3.254-1.648,7.268-10.581,10.279c-14.125,4.76-17.768,24.995-17.768,24.995s0.515-14.806-15.959-25.597
		C562.696,202.891,542.12,209.788,542.12,209.788"/>
	<path fill="#BF4F1F" stroke="#BF4F1F" stroke-width="2" d="M611.958,234.76c1.075-0.857,9.305-10.884,22.889-6.023
		c0,0-8.096,10.842-8.699,12.95"/>
	<polyline fill="#003049" stroke="#BF4F1F" stroke-width="3" points="706.862,292.706 717.478,259.666 737.162,288.412 
		734.052,270.996 	"/>
	<path fill="#BF4F1F" stroke="#BF4F1F" stroke-width="2" d="M639.669,247.559c0,0,4.801-3.463,11.074-1.658
		c6.271,1.808,16.66,7.229,23.284,2.41c0,0-7.828,10.667-14.306,10.077c0,0,10.459,6.14,15.913,4.778c0,0-5.029,4.951-7.59,6.022
		c0,0,6.734,3.213,11.704,7.881c4.967,4.667,7.547,1.103,11.543,2.358c0,0-10.193,14.335-17.723,9.797c0,0,1.462,3.481,3.47,14.997
		c1.882,10.804-4.471,15.207-4.471,15.207"/>
	<path fill="#FCBF49" stroke="#BF4F1F" stroke-width="3" d="M619.523,247.408c0.801-6.827,3.713-16.062,14.455-12.85
		c10.738,3.213,6.84,15.765,2.305,19.072"/>
	<path fill="#FCBF49" stroke="#BF4F1F" stroke-width="3" d="M659.088,286.744c0,0-5.205-31.205-37.494-40.038
		c-32.287-8.834-54.77-2.812-66.013,5.62c-11.242,8.431-11.645,12.044-11.645,12.044"/>
	<path fill="none" stroke="#BF4F1F" stroke-dasharray="12" d="M636.201,285.539c0,0-5.205-31.204-37.491-40.038"/>
	<path fill="#EAE287" stroke="#BF4F1F" stroke-width="2" d="M636.283,269.188c0,6.654,5.397,12.046,12.046,12.046
		c6.65,0,12.045-5.392,12.045-12.046c0-6.652-5.395-12.045-12.045-12.045C641.68,257.144,636.283,262.537,636.283,269.188z"/>
	<circle fill="#EAE287" stroke="#BF4F1F" stroke-width="2" cx="581.28" cy="276.187" r="12.045"/>
	<path fill="#FCBF49" stroke="#BF4F1F" stroke-width="3" d="M570.785,393.464c17.156,1.8,59.884,4.208,79.959-17.474
		c20.07-21.682,24.489-45.773,20.473-62.233c-4.015-16.461-5.391-29.711-24.778-30.515c-19.387-0.805-42.049,3.212-49.187,14.053"/>
	<path fill="none" stroke="#BF4F1F" stroke-dasharray="12" d="M586.445,393.464c17.24,0.501,28.563,4.208,48.639-17.474
		c20.073-21.682,24.492-45.773,20.472-62.233c-4.014-16.461-5.391-29.711-24.778-30.515"/>
	<path fill="#BF4F1F" stroke="#BF4F1F" stroke-width="2" d="M476.17,303.345l72.944,103.963c0,0,25.738-7.628,36.179-36.937
		c0,0-12.045,7.227-17.667,6.021c0,0,9.368-9.234,8.299-25.295c0,0-2.378,2.836-5.141,4.23c0,0,2.061-13.865-2.754-18.685
		c0,0-3.286,8.835-9.072,10.039c0,0,16.696-27.652,4.854-43.336c0,0-15.484,18.44-21.693,18.844c0,0,3.423-12.393,3.825-18.844
		c0,0-5.619,2.384-10.035,2.784c0,0-1.42-21.684,4.707-27.303c0,0-30.86-14.452-16.381-33.324
		c14.481-18.872,32.091,4.415,31.117,7.828c0,0,3.545-27.877,0-32.421c-8.882-11.377-32.192-17.593-32.192-17.593
		c4.817,2.583,3.012,14.883,3.012,14.883c-18.67-4.819-31.92,6.926-31.92,6.926c9.636-1.205,27.702,5.119,27.702,5.119
		c-32.22-2.107-40.65,19.574-40.65,19.574c7.827-9.636,33.728-3.313,33.728-3.313c-43.366,13.25-41.255,47.704-41.255,47.704
		c4.215-11.92,27.4-9.135,27.4-9.135C477.087,285.696,476.17,303.345,476.17,303.345"/>
	<path fill="#003049" stroke="#BF4F1F" stroke-width="3" d="M480.02,299.711c-19.701,16.499-31.16,56.886-28.143,88.437
		c3.785,39.566,28.903,50.252,58.357,47.437c29.457-2.815,52.099-18.074,48.309-57.64c-3.167-33.097-23.815-72.719-47.724-83.146
		l-10.066,34.018L480.02,299.711z"/>
	<path fill="#003049" stroke="#BF4F1F" stroke-width="2" d="M659.088,286.744"/>
	<path fill="#003049" stroke="#BF4F1F" stroke-width="3" d="M662.777,290.059c0,0,0.207,4.327-1.7,5.531
		c0,0-3.097-3.728-5.622-2.009c-4.711,3.213,0.5,5.521,2.711,4.417l-6.222,6.223l-8.932-4.216c0,0,5.42-4.617,0-6.625
		c-5.419-2.009-5.722,5.12-5.722,5.12s-7.829-0.946-8.234-5.794c-0.399-4.847,2.309-8.731,12.246-9.563
		C657.783,281.764,662.777,290.059,662.777,290.059z"/>
	<circle fill="#FCBF49" stroke="#BF4F1F" stroke-width="2" cx="718.889" cy="171.924" r="12.045"/>
	<path fill="#003049" stroke="#BF4F1F" stroke-width="3" d="M783.553,133.697L759.7,175.018l-23.859-41.321
		c-12.108,7.832-20.104,21.479-20.104,36.973c0,24.281,19.685,43.966,43.964,43.966c24.28,0,43.967-19.685,43.967-43.966
		C803.667,155.174,795.666,141.528,783.553,133.697z"/>
	<circle fill="#FCBF49" stroke="#BF4F1F" stroke-width="2" cx="738.162" cy="173.18" r="12.046"/>
	<path fill="none" stroke="#BF4F1F" stroke-width="3" d="M395.452,54.712c0.491,14.897,4.425,39.012,24.421,42.801
		c38.457,7.29,41.751-17.808,70.003,0.888"/>
	<path fill="none" stroke="#BF4F1F" stroke-width="3" d="M617.013,324.597c8.435,12.045,40.19,9.636,40.954-6.023
		c0,0-1.675,10.51,6.021,9.236c7.59-1.26,7.554-8.334,7.59-10.792"/>
	<ellipse fill="#003049" cx="540.623" cy="108.134" rx="8.334" ry="4.332"/>
	<path fill="#003049" d="M746.498,172.607c0,2.394-3.734,4.332-8.333,4.332c-4.605,0-8.336-1.938-8.336-4.332
		c0-2.392,3.73-4.332,8.336-4.332C742.763,168.275,746.498,170.215,746.498,172.607z"/>
	
		<ellipse transform="matrix(0.1791 0.9838 -0.9838 0.1791 749.8922 -344.998)" fill="#003049" cx="581.675" cy="276.85" rx="6.872" ry="1.843"/>
	<path fill="#003049" d="M649.958,275.983c-1.001,0.182-2.366-2.696-3.045-6.431c-0.68-3.733-0.418-6.908,0.584-7.09
		c1.003-0.183,2.364,2.697,3.046,6.429C651.219,272.625,650.959,275.799,649.958,275.983z"/>
</g>
<g>
	<path fill="#EAE287" stroke="#BF4F1F" stroke-width="3" d="M387.443,206.534c32.884-24.591,34.287-54.88,32.452-80.752
		c-0.758-10.738-5.018-30.348-17.935-30.385c-9.039-0.026-14.999,25.492-32.922,33.642c-8.866,4.03-40.107,9.84-48.904,16.419
		c-32.885,24.591-34.283,49.374-19.325,69.379C315.771,234.843,354.556,231.126,387.443,206.534z"/>
	<path fill="#FCBF49" stroke="#BF4F1F" stroke-width="3" d="M323.703,375.322c20.657,11.498,56.402,11.333,73.193-11.179
		c16.794-22.507-2.004-43.65,2.845-66.654c2.162-10.254,7.624-12.615,14.035-10.847c0,0-4.817-14.209-21.549-11.927
		c0,0,4.541-10.798,12.342-5.058c0,0-18.743-14.097-29.873,13.562c0,0-0.958-17.194-3.862-21.676c0,0-8.24,37.196-38.322,42.513
		C302.434,309.372,323.703,375.322,323.703,375.322z"/>
	<path fill="#003049" stroke="#BF4F1F" stroke-width="3" d="M178.636,374.378c0,0-51.549,17.241-87.305,18.597
		c-35.753,1.358-67.348-11.945-73.168-18.597c-5.82-6.653-24.945-40.306,0-87.918c7.42-14.164,22.404-29.755,28.27-25.164
		c11.264,8.817,21.408,11.072,34.091,19.956c12.684,8.885,47.395,27.439,64.854,17.46
		C162.839,288.734,178.636,374.378,178.636,374.378z"/>
	<path fill="#003049" stroke="#BF4F1F" stroke-width="3" d="M125.422,310.353c0,0-9.144,9.979-14.133,0
		c-4.991-9.978-18.295-21.619-30.766-29.101c-12.472-7.483-0.832-19.459,11.639-28.606c12.473-9.145,21.785-8.81,33.259-27.103
		s12.278-29.086,31.597-39.912c0,0,57.373-18.291,49.059,12.473C197.76,228.869,136.232,302.038,125.422,310.353z"/>
	<path fill="#003049" stroke="#BF4F1F" stroke-dasharray="12" d="M92.385,287.191c-12.471-7.484-0.832-19.459,11.642-28.606
		c12.474-9.146,21.784-8.811,33.26-27.103c11.473-18.292,12.277-29.088,31.595-39.911c0,0,57.374-18.292,49.057,12.472"/>
	<circle fill="#BF4F1F" stroke="#BF4F1F" stroke-width="2" cx="147.873" cy="87.185" r="13.303"/>
	<path fill="#FCBF49" stroke="#BF4F1F" stroke-width="3" d="M307.569,145.619c0,0,0-0.001,0-0.002
		c-2.548-45.128-6.705-71.734-33.194-104.708C247.577,7.551,191.939,4.371,191.939,4.371l3.329,22.45l-10.812-22.45
		c-22.449,0.831-36.583,17.461-36.583,17.461c10.026,2.673,23.807,16.094,31.854,29.46c1.963,3.262,3.589,6.52,4.729,9.619
		c0,0,3.571-7.666,10.988-13.363l23.007-5.479h0.001h0.002c6.155,1.097,13.395,3.199,20.049,7.202
		c20.858,12.543,54.51,42.663,55.945,71.31c2.004,2.452,2.924,4.177,2.924,4.177C301.11,131.811,304.506,138.767,307.569,145.619z"
		/>
	<path fill="#003049" stroke="#BF4F1F" stroke-width="3" d="M325.809,208.609c-1.911-19.337-8.223-40.579-18.24-62.99
		c-3.063-6.853-6.458-13.809-10.196-20.861c0,0-0.92-1.725-2.924-4.177c-5.678-6.955-20.134-19.832-47.63-16.434
		c-33.631,4.158-62.362,88.968-63.906,97.817s-2.613,29.399-25.062,52.68c-22.449,23.281-32.428,54.047-32.428,72.339
		c0,18.293,14.136,41.575,45.877,59.035c31.742,17.461,83.002,24.113,117.095,0c34.089-24.113,24.943-44.901,37.415-74.002
		C338.281,282.914,328.303,233.857,325.809,208.609z"/>
	<path fill="none" stroke="#BF4F1F" stroke-dasharray="12" d="M272.093,104.147c-33.629,4.158-62.358,88.968-63.902,97.817
		c-1.547,8.849-2.613,29.399-25.063,52.68c-22.451,23.281-32.428,54.047-32.428,72.339c0,18.293,14.136,52.216,45.877,69.677"/>
	<path fill="#003049" stroke="#BF4F1F" stroke-width="3" d="M212.462,180.639c7.351-3.417,15.796-5.621,25.21-8.311
		c14.104-4.031,38.836-10.238,50.543-28.691c2.785-4.389,4.839-9.466,5.829-15.377c5.156-30.764-32.805-65.316-55.542-78.989
		c-6.654-4.003-13.894-6.104-20.049-7.202h-0.003c-22.311-0.777-37.132,12.781-37.132,12.781s-0.564-2.244-1.593-3.558
		c-14.7,9.33-29.594,23.769-41,40.384c-3.508,5.109-6.682,9.806-9.542,14.14"/>
	<path fill="#003049" stroke="#BF4F1F" stroke-width="2" d="M137.167,105.816"/>
	<path fill="#003049" stroke="#BF4F1F" stroke-width="2" d="M146.709,91.677"/>
	<path fill="#003049" stroke="#BF4F1F" stroke-dasharray="12" d="M181.399,55.655c-12.761,9.227-25.303,22.02-35.213,36.456"/>
	<circle fill="#BF4F1F" stroke="#BF4F1F" stroke-width="2" cx="218.453" cy="79.204" r="13.304"/>
	<path fill="#003049" stroke="#BF4F1F" stroke-width="2" d="M129.414,105.977c10.809-10.809,8.315-12.472,21.62,0
		c13.304,12.473,20.953,13.97,36.749,26.441c15.8,12.472,4.157,20.787,9.978,27.439c5.822,6.652,18.594,10.803,14.702,20.784"/>
	<path fill="#EAE287" stroke="#BF4F1F" stroke-width="3" d="M129.258,105.937c10.809-10.811,8.429-12.395,21.73,0.079
		c13.306,12.472,20.954,13.968,36.751,26.441c15.801,12.473,4.161,20.787,9.979,27.437c5.822,6.653,18.594,10.804,14.701,20.786
		h0.001c-6.285,2.92-11.765,6.727-16.364,12.474c-9.979,12.474-20.29,8.814-31.099,10.172l34.422-25.138
		c-11.642,5.821-16.627,7.483-25.774,17.461c-9.147,9.979-26.608,15.799-33.26,11.64c-6.651-4.156,0-10.808-4.157-15.797
		c-4.157-4.988-10.809-0.831-22.449-19.124C103.167,155.753,100.94,148.822,129.258,105.937L129.258,105.937z"/>
	
		<ellipse transform="matrix(-0.7962 -0.605 0.605 -0.7962 154.8014 343.6414)" fill="#003049" stroke="#BF4F1F" stroke-width="3" cx="135.27" cy="145.752" rx="6.119" ry="12.033"/>
	<path fill="#003049" stroke="#BF4F1F" stroke-width="3" d="M307.517,166.509c-11.964-7.576-21.621,18.292-24.946,34.922
		c-3.326,16.629,1.072,34.332,6.152,46.562c4.793,11.537,4.251,28.958,0.667,43.238c-4.157,16.563-13.857,17.979,0.664,49.058
		c14.524,31.076,28.91,60.696,41.895,50.719c12.983-9.978,51.229-40.463,32.107-111.277
		C344.932,208.914,332.45,182.296,307.517,166.509z"/>
	<path fill="none" stroke="#BF4F1F" stroke-dasharray="12" d="M307.517,166.509c-11.964-7.576-21.621,18.292-24.946,34.922
		c-3.326,16.629,15.706,34.332,20.789,46.562c4.791,11.537,4.249,28.958,0.664,43.238c-4.158,16.563-13.857,17.979,0.666,49.058"/>
	<path fill="#003049" stroke="#BF4F1F" stroke-width="3" d="M317.004,386.242c-3.935,41.142-30.054,52.253-60.682,49.324
		c-30.628-2.931-54.165-18.791-50.229-59.934c3.935-41.14,33.853-91.983,64.481-89.054
		C301.202,289.511,320.939,345.102,317.004,386.242z"/>
	<path fill="none" stroke="#BF4F1F" stroke-width="3" d="M415.806,111.046c-9.04-0.028-15,25.494-32.923,33.64
		c-8.862,4.033-40.105,9.844-48.903,16.421"/>
	<path fill="none" stroke="#BF4F1F" stroke-dasharray="12" d="M408.696,97.837c-9.041-0.028-15.001,25.494-32.923,33.64
		c-8.863,4.032-40.108,9.844-48.904,16.421l-13.875,11.175"/>
	<path fill="none" stroke="#BF4F1F" stroke-width="3" d="M420.389,141.343c-6.493,6.919-14.444,15.763-25.179,18.527
		c-9.5,2.449-41.114,2.681-51.012,7.678"/>
	<path fill="none" stroke="#BF4F1F" stroke-width="3" d="M414.007,171.8c-2.597,0.953-5.31,1.614-8.135,1.833
		c-9.405,0.731-39.377-4.327-49.585-1.247"/>
	<path fill="none" stroke="#BF4F1F" stroke-width="3" d="M406.137,187.912c-12.527-3.163-31.082-8.853-39.152-7.892"/>
	<path fill="none" stroke="#BF4F1F" stroke-width="3" d="M398.758,195.891c-8.218-3.679-16.274-6.903-21.091-7.175"/>
	<circle fill="#003049" cx="218.763" cy="79.204" r="8.333"/>
	<path fill="none" stroke="#BF4F1F" stroke-width="3" d="M43.061,260.754c14.84,2.434,22.579,30.593,17.285,62.899
		c-5.293,32.305-21.615,56.522-36.456,54.09"/>
</g>
</svg>
