<?xml version="1.0" encoding="utf-8"?>
<!-- Generator: Adobe Illustrator 14.0.0, SVG Export Plug-In . SVG Version: 6.00 Build 43363)  -->
<!DOCTYPE svg PUBLIC "-//W3C//DTD SVG 1.1//EN" "http://www.w3.org/Graphics/SVG/1.1/DTD/svg11.dtd">
<svg version="1.1" id="Layer_1" xmlns="http://www.w3.org/2000/svg" xmlns:xlink="http://www.w3.org/1999/xlink" x="0px" y="0px"
	 width="792px" height="438.193px" viewBox="0 0 792 438.193" enable-background="new 0 0 792 438.193" xml:space="preserve">
<g>
	<path fill="#BF4F1F" d="M73.584,372.759c-0.412,0-0.861-0.016-1.354-0.045c-9.305-0.664-22.674-6.854-26.551-8.736
		c-19.883-9.646-32.859-22.079-39.671-38.007c-6.749-16.018-5.894-32.924,2.529-50.283c3.45-7.112,13.827-24.354,35.6-30.857
		c5.669-1.693,11.218-2.516,16.967-2.516c10.669,0,21.815,2.892,34.075,8.841c8.289,4.021,13,7.004,18.297,10.486
		c2.33,1.535,4.393,3.092,6.213,4.465c1.873,1.413,3.491,2.633,5.05,3.592c5.044,3.039,5.544,8.193,3.851,11.682
		c-0.385,0.792-0.824,1.473-1.336,2.261c-0.628,0.971-1.488,2.299-2.807,4.662c-1.023,1.819-2.286,4.344-3.508,6.785
		c-1.385,2.767-2.585,5.165-3.49,6.659c-0.965,1.689-3.427,5.842-8.461,5.843c-0.001,0-0.002,0-0.002,0
		c-1.295,0-2.563-0.297-3.771-0.883c-0.787-0.382-7.533-3.972-3.313-12.839c1.129-2.59,1.281-5.876,0.396-8.602
		c-1.07-3.407-6.689-10.345-17.867-15.769c-5.807-2.817-10.851-4.186-15.422-4.186c-2.229,0-4.391,0.317-6.611,0.97
		c-9.216,2.759-16.442,10.063-22.709,22.979c-7.132,14.699-5.311,26.7-2.527,34.179c3.26,8.759,9.594,16.116,16.941,19.682
		c7.29,3.537,11.736,4.979,15.348,4.979c1.693,0,3.252-0.328,4.904-1.033l0.094-0.039c2.02-0.829,4.357-2.807,5.269-3.916
		c1.188-1.604,3.585-4.7,7.837-4.7c1.295,0,2.586,0.308,3.836,0.914c3.778,1.834,6.21,6.556,3.553,12.036
		c-1.125,2.317-8.317,12.971-11.945,16.962C80.904,370.628,78.314,372.759,73.584,372.759L73.584,372.759z"/>
	<path fill="#FCBF49" d="M12.629,323.14c-7.021-16.661-3.484-32.208,2.387-44.309c4.116-8.483,13.879-21.934,31.182-27.101
		c12.979-3.875,27.252-3.115,45.84,5.904c7.734,3.753,12.109,6.492,17.484,10.025c4.438,2.924,7.885,5.984,11.446,8.174
		c1.312,0.791,1.509,1.657,1.146,2.405c-0.484,0.998-1.586,2.313-3.953,6.559c-2.248,3.996-5.451,10.918-6.912,13.292
		c-1.033,1.811-1.766,2.688-2.889,2.143c-0.998-0.484-0.764-1.603,0.084-3.35c1.752-3.928,2.248-9.082,0.703-13.838
		c-1.998-6.364-10.095-14.454-21.572-20.023c-10.854-5.266-19.297-5.972-27.207-3.645c-13.163,3.94-21.283,14.642-27.155,26.743
		c-14.407,29.692,1.031,55.37,17.749,63.48c11.104,5.388,18.445,7.408,26.22,4.092c3.271-1.342,6.647-4.173,8.237-6.176
		c1.342-1.814,1.834-2.192,2.832-1.708c0.873,0.424,0.699,1.418,0.215,2.416c-0.727,1.498-7.49,11.625-10.795,15.262
		c-1.653,1.817-2.455,2.199-5,2.043c-5.959-0.425-15.863-4.152-23.848-8.025C31.73,349.208,19.199,338.504,12.629,323.14z"/>
	<path fill="none" stroke="#BF4F1F" stroke-width="4" d="M57.121,255.911c-15.233,4.554-24.175,16.629-29.169,26.922
		c-5.896,12.154-7.994,25.654-3.503,38.977"/>
	<path fill="#BF4F1F" d="M226.818,414.718c-0.961,0-1.954-0.121-3.036-0.37c-5.403-1.241-10.597-2.59-14.771-3.674
		c-2.586-0.671-4.818-1.251-6.219-1.573c-1.236-0.283-3.654-0.758-6.213-1.259c-3.6-0.705-7.68-1.505-10.773-2.215
		c-7.779-1.787-8.647-7.524-7.934-10.632c0.871-3.793,4.171-6.34,8.211-6.34c0.883,0,1.809,0.114,2.829,0.35
		c0.566,0.129,1.089,0.217,1.56,0.275c0.184-0.422,0.41-0.977,0.688-1.705c1.832-5.139,4.238-15.614,7.021-27.734l1.311-5.705
		l-39.214-9.005l-1.306,5.687c-2.798,12.181-5.214,22.701-5.826,28.255c-0.067,0.56-0.105,0.988-0.125,1.314
		c1.544,0.554,3.578,1.196,4.941,1.51c1.896,0.436,3.416,1.159,4.646,2.214c2.324,1.992,3.35,5.055,2.674,7.994
		c-0.891,3.889-4.35,6.504-8.605,6.505c-0.961,0-1.955-0.121-3.037-0.37c-5.402-1.24-10.596-2.589-14.77-3.673
		c-2.586-0.672-4.819-1.252-6.22-1.573c-1.228-0.282-3.624-0.752-6.163-1.25c-3.643-0.714-7.771-1.523-10.959-2.256
		c-1.98-0.455-3.558-1.166-4.82-2.176c-2.56-2.047-3.701-5.275-2.978-8.425c0.872-3.792,4.171-6.339,8.212-6.339
		c0.882,0,1.807,0.113,2.828,0.349c0.566,0.13,1.089,0.218,1.56,0.276c0.185-0.422,0.411-0.977,0.688-1.707
		c1.833-5.143,4.24-15.623,7.025-27.751l5.463-23.785c4.691-20.434,5.535-24.11,6.222-28.272c0.093-0.555,0.146-0.968,0.173-1.27
		c-0.045-0.022-0.377-0.181-0.377-0.181c-0.287-0.127-1.699-0.597-3.523-1.016c-1.188-0.272-2.949-0.78-4.519-2.027
		c-2.515-2-3.628-5.198-2.905-8.345c0.882-3.837,4.234-6.416,8.342-6.416c1.001,0,2.081,0.141,3.399,0.442
		c4.386,1.007,9.17,2.256,13.014,3.26c2.658,0.694,4.954,1.293,6.36,1.617c1.309,0.3,3.779,0.785,6.396,1.298
		c3.586,0.704,7.652,1.501,10.727,2.208c9.576,2.2,8.156,9.654,7.963,10.497c-0.885,3.858-4.216,6.452-8.289,6.452
		c-0.928,0-1.896-0.124-3.051-0.388c-0.447-0.103-1.042-0.185-1.834-0.253c-0.119,0.322-0.262,0.748-0.424,1.305
		c-1.145,3.858-1.959,7.35-6.004,24.958l39.213,9.005c4.04-17.595,4.83-21.098,5.48-25.039c0.094-0.555,0.145-0.968,0.172-1.269
		c-0.045-0.021-0.376-0.181-0.376-0.181c-0.287-0.127-1.7-0.597-3.524-1.016c-7.352-1.688-8.125-7.314-7.424-10.373
		c0.883-3.837,4.234-6.416,8.343-6.416c1.001,0,2.081,0.141,3.399,0.442c4.384,1.007,9.166,2.255,13.008,3.258
		c2.66,0.694,4.958,1.294,6.365,1.617c1.312,0.301,3.787,0.787,6.408,1.301c3.583,0.703,7.645,1.5,10.715,2.206
		c9.577,2.2,8.156,9.654,7.963,10.497c-0.887,3.859-4.217,6.452-8.289,6.452c-0.927,0-1.896-0.124-3.051-0.388
		c-0.447-0.103-1.041-0.185-1.834-0.253c-0.119,0.322-0.262,0.749-0.424,1.306c-1.211,4.085-2.056,7.766-6.746,28.191l-5.462,23.786
		c-2.798,12.182-5.214,22.701-5.827,28.256c-0.066,0.56-0.105,0.988-0.125,1.314c1.545,0.554,3.578,1.196,4.942,1.51
		c1.896,0.436,3.415,1.158,4.646,2.213c2.326,1.991,3.351,5.055,2.675,7.996C234.531,412.103,231.073,414.717,226.818,414.718
		L226.818,414.718z"/>
	<path fill="#FCBF49" d="M208.986,341.246c0.404,0.093,0.872-0.084,1.027-0.76l0.652-2.838c4.717-20.542,5.586-24.326,6.309-28.713
		c0.785-4.657,0.201-7.068-4.042-9.038c-1.019-0.519-3.286-1.181-5.178-1.616c-1.486-0.341-2.235-0.798-2.019-1.744
		c0.218-0.946,1.227-0.999,3.118-0.566c7.298,1.676,15.72,4.037,19.368,4.875c3.244,0.745,11.852,2.295,17.121,3.507
		c1.893,0.435,2.776,0.922,2.559,1.868c-0.217,0.946-1.09,1.03-2.711,0.658c-1.082-0.249-2.329-0.393-4.014-0.495
		c-3.803-0.163-5.412,1.887-6.77,6.555c-1.263,4.263-2.132,8.047-6.85,28.589l-5.462,23.786c-2.855,12.434-5.308,23.11-5.966,29.076
		c-0.464,3.878-0.336,7.037,3.594,8.509c1.83,0.705,4.742,1.658,6.77,2.124c1.486,0.341,2.068,0.902,1.914,1.577
		c-0.218,0.946-1.393,1.104-3.014,0.731c-8.785-2.018-17.205-4.379-20.99-5.248c-3.107-0.713-11.715-2.264-16.986-3.474
		c-1.893-0.435-2.745-1.058-2.527-2.003c0.154-0.676,0.789-0.957,2.41-0.585c2.027,0.466,3.711,0.567,4.99,0.577
		c2.826,0.08,4.186-2.738,5.625-6.533c1.98-5.521,4.432-16.197,7.287-28.631l2.731-11.894c0.124-0.54-0.22-0.903-0.625-0.997
		l-51.626-11.856c-0.406-0.093-0.842-0.051-0.997,0.625l-2.731,11.893c-2.855,12.434-5.307,23.109-5.966,29.076
		c-0.464,3.877-0.335,7.037,3.595,8.508c1.83,0.705,4.741,1.658,6.768,2.124c1.487,0.341,2.07,0.902,1.914,1.578
		c-0.217,0.946-1.391,1.103-3.013,0.73c-8.784-2.018-17.206-4.378-20.989-5.247c-3.109-0.714-11.717-2.264-17.122-3.506
		c-1.757-0.402-2.61-1.025-2.393-1.972c0.155-0.676,0.788-0.957,2.411-0.585c2.027,0.467,3.711,0.568,4.988,0.577
		c2.828,0.08,4.186-2.737,5.627-6.532c1.979-5.521,4.432-16.198,7.287-28.632l5.462-23.786c4.718-20.542,5.587-24.327,6.31-28.713
		c0.785-4.657,0.2-7.068-4.043-9.038c-1.019-0.519-3.285-1.181-5.178-1.616c-1.486-0.341-2.234-0.798-2.018-1.744
		c0.217-0.946,1.225-0.999,3.117-0.566c7.298,1.676,15.719,4.037,19.368,4.875c3.243,0.745,11.851,2.294,17.122,3.506
		c1.892,0.435,2.775,0.922,2.559,1.868c-0.217,0.946-1.09,1.03-2.713,0.658c-1.08-0.249-2.328-0.393-4.012-0.495
		c-3.805-0.163-5.413,1.887-6.77,6.555c-1.264,4.263-2.133,8.047-6.85,28.589l-0.652,2.838c-0.154,0.676,0.188,1.039,0.594,1.132
		L208.986,341.246z"/>
	<path fill="#BF4F1F" d="M299.869,421.591c-0.466,0-0.951-0.025-1.443-0.075c-5.656-0.577-11.027-1.279-15.343-1.845
		c-2.566-0.336-4.783-0.625-6.133-0.764c-1.253-0.127-3.69-0.297-6.272-0.477c-3.701-0.258-7.896-0.551-11.15-0.883
		c-2.021-0.205-3.676-0.717-5.054-1.563c-2.794-1.715-4.325-4.777-3.996-7.992c0.362-3.557,3.254-7.389,8.745-7.389
		c0.469,0,0.949,0.026,1.468,0.08c0.526,0.053,1.057,0.08,1.574,0.08c0.056,0,0.11,0,0.165,0c0.063-0.256,0.132-0.559,0.206-0.916
		l0.023-0.107c1.187-5.305,2.313-16.354,3.618-29.146l2.479-24.291c2.125-20.843,2.508-24.599,2.674-28.823
		c0.027-0.618,0.019-1.082-0.003-1.422c-0.511-0.132-1.276-0.285-2.345-0.395c-6.436-0.656-8.917-5.382-8.498-9.496
		c0.277-2.723,2.498-7.329,9.059-7.329c0.667,0,1.405,0.042,2.256,0.128c2.912,0.297,6.672,0.799,10.309,1.285
		c2.998,0.4,5.83,0.779,7.584,0.958c1.424,0.145,3.912,0.315,6.548,0.495c3.425,0.234,7.308,0.5,10.322,0.808
		c9.778,0.999,9.303,8.447,9.216,9.293c-0.461,4.513-4.082,7.664-8.808,7.664c-0.452,0-0.921-0.025-1.433-0.077
		c-0.408-0.042-0.771-0.061-1.178-0.061c-0.236,0-0.498,0.006-0.81,0.02c-0.079,0.334-0.167,0.775-0.259,1.35
		c-0.695,4.195-1.076,7.938-3.195,28.712l-2.486,24.373c-1.305,12.796-2.434,23.854-2.492,29.53
		c0.003,0.185,0.008,0.348,0.014,0.492c1.663,0.381,3.875,0.792,5.326,0.94c6.436,0.657,8.93,5.24,8.525,9.222
		C308.707,417.642,305.664,421.591,299.869,421.591L299.869,421.591z"/>
	<path fill="#FCBF49" d="M275.918,347.035c2.139-20.967,2.532-24.829,2.707-29.271c0.202-4.718-0.938-7.204-3.902-8.203
		c-1.475-0.569-3.254-0.89-4.91-1.059c-1.379-0.141-2.178-0.501-2.066-1.604c0.085-0.828,1.217-0.991,3.424-0.766
		c5.242,0.535,13.89,1.834,17.89,2.243c3.448,0.352,11.629,0.768,16.871,1.303c1.793,0.183,2.868,0.572,2.784,1.399
		c-0.113,1.104-0.969,1.295-2.348,1.154c-1.379-0.141-2.497-0.116-4.181-0.008c-3.794,0.31-5.138,2.542-5.905,7.342
		c-0.727,4.386-1.12,8.249-3.259,29.215l-2.476,24.277c-1.365,13.38-2.477,24.277-2.529,30.265c0.033,3.767,0.746,6.348,4.828,7.322
		c1.902,0.473,4.909,1.058,6.979,1.27c1.518,0.154,2.164,0.639,2.094,1.328c-0.098,0.965-1.244,1.267-2.762,1.111
		c-9.104-0.928-17.752-2.229-21.476-2.607c-3.173-0.324-11.905-0.797-17.423-1.359c-1.793-0.183-2.717-0.695-2.617-1.66
		c0.07-0.69,0.664-1.048,2.318-0.879c2.07,0.211,3.753,0.104,5.022-0.045c2.815-0.271,3.882-2.531,4.704-6.489
		c1.28-5.724,2.392-16.62,3.756-30.001L275.918,347.035z"/>
	<path fill="#BF4F1F" d="M323.582,425.185c-6.538,0-9.563-4.471-9.607-8.624c-0.034-3.292,1.876-6.151,4.985-7.462
		c1.247-0.526,2.669-0.791,4.348-0.809c0.597-0.006,0.999-0.01,1.593-0.094c0.287-0.745,0.675-2.223,1.074-5.152l12.813-90.751
		c1.511-9.108,8.051-9.638,9.347-9.652l0.104,0c5.974,0,8.599,5.116,10.167,8.172l32.039,64.462l30.641-66.09
		c1.161-2.384,3.579-7.345,9.414-7.404c0,0,0.001,0,0.002,0c2.511,0,8.291,1.013,9.729,10.379l13.51,85.527
		c0.867,5.653,1.574,7.55,1.974,8.183c2.943,0.87,4.909,0.972,6.136,0.972l0.489-0.002c7.265,0,9.239,5.28,9.269,8.072
		c0.038,3.579-2.146,6.643-5.701,7.995c-1.418,0.54-3.104,0.823-5.011,0.843c-0.272,0.004-0.634,0.005-1.072,0.005
		c-4.729,0-22.054-0.197-27.623-0.557c-8.852-0.677-10.736-5.046-10.773-8.593c-0.013-1.205,0.254-3.67,2.315-5.832
		c-0.024-0.199-0.056-0.42-0.093-0.662l-5.606-38.133l-19.835,42.439c-3.666,7.695-5.673,11.908-11.495,11.969c0,0-0.002,0-0.004,0
		c-5.52,0-8.005-4.557-10.883-9.835l-0.432-0.792c-2.362-4.414-14.607-27.465-16.545-31.857c-0.482-1.093-2.234-4.742-4.381-9.183
		l-3.805,31.702c-0.134,1.34-0.219,2.394-0.264,3.359c0.9,0.131,1.77,0.199,2.574,0.199l0.291-0.001
		c5.997,0,9.178,4.062,9.221,8.073c0.037,3.568-2.018,6.628-5.361,7.986c-1.784,0.725-3.65,0.834-5.076,0.85
		c-0.492,0.004-0.987,0.007-1.484,0.007c-3.186,0-6.363-0.099-8.916-0.177c-1.637-0.051-3.018-0.096-3.956-0.096l-0.206,0.002
		c-0.996,0.01-2.896,0.108-4.906,0.213c-2.887,0.148-6.16,0.318-8.816,0.346L323.582,425.185z"/>
	<path fill="#FCBF49" d="M345.891,313.47c0.392-2.362,1.211-3.618,2.319-3.63c1.109-0.012,1.948,0.673,3.789,4.259l38.671,77.807
		l36.886-79.567c1.087-2.23,1.769-3.347,3.016-3.359c1.248-0.013,2.095,1.365,2.541,4.272l13.514,85.558
		c1.339,8.723,2.768,12.729,6.94,13.934c4.034,1.205,6.809,1.314,8.611,1.297c1.248-0.014,2.22,0.115,2.229,0.947
		c0.012,1.109-1.647,1.542-3.589,1.563c-3.467,0.036-22.605-0.18-28.156-0.537c-3.191-0.244-4.028-0.652-4.037-1.484
		c-0.007-0.693,0.543-1.114,1.51-1.541c0.829-0.285,1.226-2.092,0.631-5.969l-8.957-60.922l-0.555,0.006l-29.569,63.266
		c-3.121,6.551-3.801,7.805-5.049,7.818s-2.664-2.746-4.926-6.882c-3.394-6.344-14.569-27.443-16.273-31.309
		c-1.279-2.898-9.781-20.282-14.742-30.631l-0.555,0.006l-6.633,55.261c-0.252,2.498-0.371,4.303-0.349,6.521
		c0.028,2.634,1.843,3.863,4.206,4.393c2.502,0.529,4.444,0.647,5.831,0.633c1.109-0.012,2.083,0.256,2.09,0.949
		c0.013,1.248-1.231,1.538-3.312,1.56c-5.824,0.062-12.068-0.29-14.563-0.264c-2.634,0.028-9.286,0.513-13.723,0.56
		c-1.387,0.015-2.499-0.252-2.512-1.499c-0.007-0.693,0.821-0.979,2.208-0.994c1.109-0.011,2.08-0.021,4.156-0.46
		c3.873-0.871,4.926-6.291,5.57-11.013L345.891,313.47z"/>
	<path fill="#BF4F1F" d="M487.64,419.382c-5.481,0-8.45-3.65-8.961-7.27c-0.554-3.972,1.768-8.643,8.17-9.543
		c0.576-0.08,1.095-0.186,1.555-0.299c0.021-0.455,0.036-1.055,0.034-1.84c-0.124-5.459-1.62-16.107-3.351-28.43l-3.395-24.167
		c-2.915-20.754-3.44-24.493-4.288-28.628c-0.11-0.552-0.21-0.957-0.292-1.248c-0.05-0.004-0.413-0.035-0.413-0.035
		c0.017,0.003-0.036,0.003-0.096,0.003c-0.003,0-0.007,0-0.01,0c-0.816,0-2.243,0.124-3.55,0.307
		c-0.731,0.103-1.39,0.153-2.011,0.153c-5.26,0-8.124-3.607-8.629-7.183c-0.197-1.405-0.685-8.442,8.976-9.798
		c1.931-0.271,3.939-0.517,5.91-0.757c1.811-0.221,3.587-0.437,5.23-0.668l0.276-0.033l1.57-0.159
		c2.868-0.289,5.346-0.538,6.843-0.749c22.421-3.149,32.079-4.568,33.781-4.868c3.49-0.875,4.413-1.206,4.615-1.288l0.167-0.067
		l0.165-0.08c0.722-0.354,1.928-0.948,3.492-1.167c0.38-0.054,0.771-0.081,1.154-0.081c3.348,0,7.271,2.296,7.973,7.338
		c0.137,0.968,0.097,1.824,0.059,2.652c-0.053,1.131-0.142,3.024,0.146,6.886l0.015,0.247c0.018,0.448,0.099,1.433,0.189,2.584
		c0.265,3.374,0.436,5.688,0.4,7.045l-0.01,0.235c-0.319,5.496-4.158,7.968-7.349,8.416c-0.411,0.058-0.828,0.087-1.238,0.087
		c-3.356,0-7.57-2.085-8.397-7.963c-0.097-0.692-0.362-1.684-0.558-2.105c-0.461-0.084-1.33-0.186-2.826-0.186
		c-0.243,0-0.494,0.002-0.754,0.008c-1.209,0.036-7.442,0.734-12.538,1.344l3.268,23.265c9.424-1.356,14.013-2.108,15.15-2.371
		c1.283-0.291,1.984-0.497,2.363-0.629c1.13-1.693,2.969-4.068,6.501-4.563c0.397-0.056,0.801-0.084,1.197-0.084
		c4.143,0,7.451,2.949,8.048,7.172c0.11,0.794,0.108,1.502,0.104,2.483c-0.004,1.409-0.013,3.761,0.256,8.162
		c0.112,1.273,0.247,3.078,0.373,4.775c0.112,1.526,0.268,3.616,0.324,4.083c0.112,0.8,0.311,2.206,0.068,3.788
		c-0.58,3.781-3.356,6.562-7.073,7.083c-0.431,0.061-0.866,0.091-1.292,0.091c-4.104,0.001-7.406-2.787-8.174-6.836
		c-0.09-0.387-0.177-0.801-0.267-1.232c-0.15-0.719-0.304-1.459-0.498-2.082c-0.254-0.043-0.648-0.085-1.223-0.085
		c-0.134,0-0.271,0.003-0.413,0.007c-1.319,0.046-7.339,0.77-12.471,1.426l0.708,5.04c0.192,1.366,0.468,3.414,0.779,5.729
		c0.719,5.335,1.703,12.642,2.172,15.31c0.402,2.361,0.743,3.398,0.937,3.838c0.311,0.064,0.913,0.148,1.965,0.148
		c1.691,0,3.949-0.207,7.104-0.649c2.522-0.354,7.77-1.091,9.781-2.385c0.589-0.38,1.324-0.853,1.451-5.187
		c0.299-7.403,5.286-8.891,7.416-9.19c0.4-0.056,0.804-0.085,1.2-0.085c2.157,0,7.294,0.831,8.378,8.526
		c0.519,3.698,0.745,13.854,0.386,17.257l-0.015,0.129c-1.14,9.181-7.748,10.109-13.057,10.854
		c-8.203,1.151-14.737,1.894-19.987,2.489c-1.412,0.16-4.159,0.475-4.159,0.475c-6.214,0.58-10.271,1.03-14.005,1.555
		c-1.417,0.199-4.362,0.611-7.512,1.189l-0.148,0.027l-0.148,0.02c-1.485,0.209-3.144,0.514-4.747,0.809
		c-1.653,0.304-3.215,0.59-4.688,0.797C488.994,419.33,488.305,419.382,487.64,419.382L487.64,419.382z"/>
	<path fill="#FCBF49" d="M488.822,346.833c-2.932-20.872-3.472-24.717-4.364-29.072c-0.93-4.63-2.337-6.673-7.003-6.998
		c-1.138-0.12-3.491,0.07-5.413,0.34c-1.511,0.212-2.373,0.053-2.509-0.908c-0.135-0.961,0.788-1.371,2.848-1.66
		c3.708-0.521,7.709-0.943,11.142-1.425c3.59-0.364,6.768-0.67,8.689-0.94c4.395-0.617,31.72-4.455,34.31-4.959
		c2.57-0.641,4.729-1.224,5.788-1.653c0.668-0.233,1.434-0.761,2.12-0.857c0.687-0.097,0.901,0.433,0.997,1.12
		c0.136,0.961-0.319,2.705,0.155,9.08c0.056,1.392,0.63,7.473,0.587,9.159c-0.041,0.706-0.2,1.568-1.161,1.703
		c-0.961,0.135-1.332-0.513-1.506-1.749c-0.135-0.961-0.601-3.276-1.519-4.828c-1.308-2.337-2.913-3.792-9.894-3.651
		c-2.373,0.053-16.83,1.804-19.576,2.189c-0.687,0.097-0.903,0.547-0.769,1.508l4.88,34.74c0.135,0.962,0.35,1.491,1.173,1.376
		c3.021-0.425,18.813-2.643,21.932-3.361c3.258-0.738,5.26-1.439,6.302-2.985c0.808-1.234,1.26-1.998,1.946-2.094
		c0.55-0.077,1,0.14,1.116,0.963c0.115,0.824-0.125,3.098,0.31,10.178c0.248,2.766,0.607,8.316,0.742,9.277
		c0.154,1.099,0.367,2.609-0.869,2.783c-0.961,0.135-1.313-0.376-1.409-1.063c-0.33-1.354-0.581-3.139-1.243-4.866
		c-1.073-2.649-3.284-4.439-8.442-4.275c-2.647,0.092-16.261,1.864-19.557,2.327c-0.687,0.096-0.746,0.665-0.631,1.488l1.523,10.848
		c0.656,4.67,2.293,17.321,2.99,21.284c1.605,9.437,4.092,11.188,18.098,9.22c3.57-0.501,9.337-1.312,12.676-3.461
		c3.339-2.148,4.582-5.264,4.752-11.029c0.063-1.549,0.26-2.137,1.222-2.271c1.098-0.154,1.252,0.944,1.445,2.317
		c0.443,3.158,0.656,12.649,0.355,15.493c-0.46,3.705-1.695,3.879-6.913,4.611c-10.299,1.446-17.89,2.232-23.813,2.925
		c-5.943,0.555-10.219,1.015-14.338,1.594c-1.511,0.212-4.532,0.637-7.808,1.237c-3.159,0.443-6.69,1.219-9.437,1.605
		c-1.785,0.25-2.804-0.027-2.939-0.988c-0.096-0.687,0.396-1.176,2.043-1.406c2.06-0.29,3.669-0.796,4.866-1.244
		c2.669-0.936,2.932-4.053,2.921-8.111c-0.123-5.863-1.646-16.712-3.421-29.345L488.822,346.833z"/>
	<path fill="#BF4F1F" d="M585.263,404.048c-4.041,0-7.318-2.413-8.352-6.146c-0.804-2.895,0.004-5.884,2.162-7.988
		c1.186-1.156,2.723-1.984,4.698-2.531c0.562-0.155,1.063-0.326,1.505-0.5c-0.038-0.458-0.104-1.054-0.206-1.828
		c-0.833-5.393-3.699-15.752-7.016-27.74l-6.511-23.53c-5.587-20.198-6.594-23.837-7.972-27.829
		c-0.181-0.532-0.332-0.919-0.451-1.198c-0.052,0.002-0.415,0.02-0.415,0.02c-0.314,0.025-1.781,0.284-3.584,0.783
		c-1.243,0.344-2.304,0.504-3.337,0.504c-3.912,0-7.103-2.394-8.127-6.099c-0.375-1.357-1.772-8.26,7.614-10.875
		c4.469-1.236,9.338-2.421,13.251-3.374c2.257-0.549,4.205-1.023,5.181-1.293c2.21-0.611,5.911-1.746,9.489-2.843
		c3.656-1.121,7.109-2.179,9.248-2.769c4.862-1.345,11.319-2.891,18.093-2.891c4.389,0,8.54,0.662,12.339,1.966
		c7.141,2.417,15.73,9.756,18.753,20.684c3.138,11.34,1.139,22.33-6.507,34.964c0.246,0.18,0.491,0.358,0.735,0.537
		c13.058,9.536,23.372,17.067,31.9,22.183c4.436,2.617,8.518,4.014,11.76,4.014c0.508,0,0.926-0.031,1.33-0.062l0.097-0.007
		c1.097-0.102,1.923-0.231,2.524-0.398c0.919-0.254,1.832-0.383,2.715-0.383c3.815,0,7.049,2.424,8.045,6.031
		c0.887,3.205-0.133,6.527-2.662,8.667c-1.519,1.285-3.219,1.866-4.53,2.229l-12.693,3.513c-5.587,1.545-9.251,2.176-12.646,2.176
		c-1.975,0-3.842-0.216-5.875-0.68c-7.775-1.748-14.784-6.541-26.627-15.965c-3.176-2.527-6.585-5.33-9.592-7.802
		c-2.421-1.99-5.072-4.171-6.76-5.499l-4.033,1.016c2.865,10.328,5.338,19.021,7.159,23.471l0.042,0.104
		c0.212,0.541,0.387,0.948,0.527,1.253c1.845-0.287,3.847-0.678,4.789-0.938c0.917-0.254,1.831-0.383,2.714-0.383
		c3.811,0,7.042,2.419,8.043,6.021c0.863,3.123-0.134,6.398-2.602,8.557c-1.217,1.063-2.761,1.844-4.721,2.386
		c-5.237,1.449-11.472,2.981-15.596,3.995c-2.003,0.491-3.515,0.861-4.159,1.039c-0.92,0.254-2.981,0.898-5.163,1.581
		c-3.452,1.079-7.749,2.423-11.029,3.331C587.523,403.874,586.362,404.048,585.263,404.048L585.263,404.048z M603.155,332.677
		c1.433-0.214,2.992-0.543,4.493-0.959c4.099-1.134,4.409-1.521,5.16-2.458c1.177-1.492,3.702-6.106,1.019-15.806
		c-3.252-11.755-9.913-14.223-14.929-14.223c-1.191,0-2.375,0.154-3.424,0.444c-0.493,0.136-0.939,0.263-1.344,0.381
		L603.155,332.677z"/>
	<path fill="#FCBF49" d="M578.483,331.864c-5.619-20.313-6.654-24.055-8.104-28.257c-1.524-4.469-3.186-6.312-7.854-6.027
		c-1.143,0.029-3.451,0.523-5.322,1.041c-1.47,0.407-2.346,0.361-2.604-0.574s0.603-1.461,2.607-2.02
		c7.082-1.959,15.612-3.888,18.419-4.664c4.543-1.257,14.589-4.468,18.731-5.61c8.419-2.329,17.595-4.004,26.179-1.056
		c4.444,1.504,11.676,6.84,14.152,15.794c2.736,9.889,1.107,20.123-9.357,34.815c16.034,11.677,28.546,21.019,38.723,27.124
		c9.628,5.681,15.365,5.101,17.481,4.946c1.544-0.14,2.783-0.338,3.853-0.635c1.069-0.295,1.715-0.043,1.899,0.626
		c0.296,1.069-0.565,1.595-2.17,2.038l-12.695,3.514c-7.483,2.07-11.009,2.326-15.001,1.416
		c-6.597-1.483-13.413-6.359-23.743-14.579c-7.379-5.871-16.041-13.258-18.332-14.782c-0.891-0.617-1.729-0.529-2.665-0.27
		l-11.7,2.949c-0.668,0.185-0.995,0.563-0.773,1.365l0.518,1.871c3.438,12.428,6.359,22.985,8.581,28.413
		c1.473,3.765,3.088,6.482,7.245,5.908c2.078-0.288,5.092-0.833,6.696-1.277c1.068-0.296,1.714-0.042,1.899,0.626
		c0.259,0.936-0.566,1.595-2.304,2.075c-7.751,2.145-17.751,4.479-19.756,5.034c-2.539,0.703-10.847,3.433-16.192,4.912
		c-1.737,0.48-2.783,0.338-3.042-0.598c-0.186-0.668,0.238-1.217,1.842-1.66c2.005-0.555,3.534-1.266,4.663-1.866
		c2.525-1.274,2.38-4.398,1.843-8.422c-0.885-5.798-3.806-16.354-7.207-28.649L578.483,331.864z M597.174,338.058
		c0.406,1.47,0.822,1.931,1.868,2.073c3.065,0.159,7.186-0.549,10.526-1.474c5.345-1.479,6.935-2.494,8.859-4.896
		c3.195-4.049,5.37-11.269,2.339-22.227c-5.25-18.976-19.328-20.98-27.212-18.799c-3.342,0.924-5.71,1.724-6.936,2.494
		c-0.861,0.526-0.98,1.135-0.685,2.204L597.174,338.058z"/>
	<line fill="none" stroke="#BF4F1F" stroke-width="4" x1="290.645" y1="317.091" x2="281.709" y2="402.118"/>
	<line fill="none" stroke="#BF4F1F" stroke-width="4" x1="575.05" y1="301.356" x2="597.489" y2="383.854"/>
	<line fill="none" stroke="#BF4F1F" stroke-width="4" x1="489.459" y1="315.437" x2="502.08" y2="399.995"/>
	<line fill="none" stroke="#BF4F1F" stroke-width="4" x1="353.85" y1="328.861" x2="383.377" y2="390.122"/>
	<line fill="none" stroke="#BF4F1F" stroke-width="4" x1="430.264" y1="330.612" x2="442.334" y2="404.706"/>
	<line fill="none" stroke="#BF4F1F" stroke-width="4" x1="158.309" y1="294.044" x2="139.076" y2="377.349"/>
	<line fill="none" stroke="#BF4F1F" stroke-width="4" x1="229.397" y1="309.906" x2="210.165" y2="393.211"/>
	<g>
		<path fill="#BF4F1F" d="M162.965,162.278c-4.164,0-7.582-2.588-8.504-6.441c-0.93-3.894,0.935-8.768,7.227-10.274
			c0.564-0.135,1.072-0.289,1.52-0.446c-0.021-0.46-0.066-1.057-0.141-1.834c-0.645-5.416-3.145-15.864-6.037-27.955l-5.688-23.762
			c-4.877-20.38-5.755-24.053-6.992-28.092c-0.163-0.538-0.301-0.93-0.41-1.212l-0.418,0.004c-0.314,0.014-1.789,0.221-3.605,0.656
			c-1.123,0.269-2.078,0.394-3.008,0.394c-4.023,0-7.34-2.565-8.254-6.383c-0.329-1.372-1.486-8.327,7.997-10.604
			c4.54-1.086,9.673-2.146,13.421-2.919c2.201-0.455,4.104-0.847,5.021-1.067c3.468-0.83,6.479-1.67,9.389-2.483
			c2.442-0.682,4.749-1.326,6.97-1.857c4.843-1.159,9.403-1.747,13.554-1.747c17.547,0,26.324,10.553,28.688,20.428
			c2.225,9.301,0.249,17.044-3.238,23.658c11.932,3.761,23.185,12.029,26.645,26.49c4.195,17.532-4.748,39.622-34.297,46.694
			c-1.039,0.249-2.603,0.54-4.583,0.909c-1.579,0.294-3.392,0.632-5.196,0.999l-0.229,0.042c-3.888,0.661-7.844,1.466-9.742,1.92
			c-1.396,0.334-4.304,1.03-7.363,1.898l-0.29,0.076c-1.458,0.349-3.079,0.81-4.647,1.255c-1.617,0.459-3.145,0.894-4.592,1.241
			C165.002,162.144,163.957,162.278,162.965,162.278L162.965,162.278z M193.627,133.332c0.746,0.114,1.454,0.169,2.172,0.169l0,0
			c1.668,0,3.207-0.29,5.301-0.792c4.25-1.017,8.891-4.009,6.861-12.489c-1.012-4.227-4.512-14.511-15.133-18.68
			c-1.212-0.491-2.22-0.679-3.553-0.679c-1.027,0-2.246,0.119-3.705,0.363l6.158,25.732c0.339,1.418,1.172,4.898,1.793,6.358
			C193.521,133.315,193.59,133.327,193.627,133.332z M180.854,81.521c0.092-0.022,0.185-0.044,0.28-0.067
			c3.728-0.892,4.572-1.583,4.883-2.025l0.091-0.128l0.096-0.124c1.522-1.976,1.81-5.367,0.809-9.548
			c-1.172-4.897-5.403-11.794-11.144-11.794c-0.222,0-0.447,0.01-0.676,0.029L180.854,81.521z"/>
		<path fill="#FCBF49" d="M158.345,89.891c-4.905-20.499-5.81-24.274-7.111-28.525c-1.366-4.521-2.962-6.42-7.638-6.299
			c-1.145-0.012-3.469,0.402-5.357,0.854c-1.482,0.355-2.356,0.279-2.582-0.665c-0.227-0.944,0.653-1.44,2.676-1.926
			c7.147-1.71,15.74-3.339,18.438-3.984c6.607-1.581,11.771-3.244,16.355-4.34c24.41-5.841,31.855,6.207,33.566,13.354
			c2.646,11.058-2.111,19.183-8.108,26.892c11.962,1.13,27.739,7.478,31.515,23.256c3.453,14.43-4.158,32.077-28.971,38.016
			c-1.619,0.387-5.594,1.053-9.537,1.854c-4.11,0.698-8.188,1.532-10.211,2.016c-1.484,0.355-4.451,1.065-7.655,1.975
			c-3.102,0.742-6.544,1.851-9.24,2.496c-1.753,0.42-2.794,0.241-3.021-0.703c-0.16-0.674,0.281-1.208,1.9-1.595
			c2.022-0.484,3.576-1.141,4.726-1.701c2.567-1.185,2.532-4.313,2.136-8.353c-0.682-5.825-3.23-16.479-6.199-28.886L158.345,89.891
			z M175.076,88.311c0.258,1.079,0.728,1.251,1.299,1.257c1.279-0.021,3.334-0.37,6.436-1.112c4.45-1.065,7.288-2.314,9.097-4.886
			c2.829-3.671,3.689-9.01,2.108-15.618c-2.162-9.035-10.262-19.644-21.859-16.869c-1.889,0.452-3.102,0.742-4.387,1.334
			c-0.879,0.496-1.02,1.1-0.664,2.583L175.076,88.311z M195.459,94.839c-3.316-1.345-6.644-1.547-11.967-0.558
			c-2.461,0.446-3.809,0.769-5.832,1.252c-0.539,0.129-0.744,0.463-0.583,1.138l7.648,31.961c2.13,8.9,3.083,11.096,7.818,11.817
			c3.996,0.612,7.13,0.004,10.231-0.738c6.068-1.452,15.543-7.142,12.188-21.167C212.962,110.185,207.419,99.534,195.459,94.839z"/>
		<path fill="#BF4F1F" d="M295.296,139.125c-11.049,0-20.46-2.825-27.972-8.396c-10.866-8.038-16.816-20.897-18.72-40.465
			l-1.96-20.15c-2.03-20.86-2.396-24.619-3.066-28.787c-0.087-0.556-0.169-0.963-0.238-1.258c-0.049-0.006-0.402-0.05-0.406-0.05
			c-0.027,0-0.229-0.013-0.611-0.013c-0.855,0-2,0.062-3.061,0.165c-0.538,0.053-1.029,0.078-1.498,0.078
			c-5.563,0-8.477-3.918-8.832-7.559c-0.214-2.198,0.428-4.328,1.807-6c2.398-2.907,6.039-3.253,7.594-3.4
			c4.264-0.415,8.898-0.73,12.988-1.008c2.959-0.201,5.514-0.375,7.186-0.537c1.383-0.135,3.973-0.472,6.714-0.83
			c3.46-0.451,7.384-0.962,10.216-1.24c0.747-0.073,1.393-0.107,1.981-0.107c5.741,0,8.681,3.777,9.046,7.521
			c0.393,4.053-2.117,8.696-8.557,9.322c-0.668,0.065-1.036,0.132-1.818,0.333c-0.012,0.344-0.012,0.796,0.012,1.381
			c0.147,4.256,0.514,8.015,2.542,28.871l1.88,19.327c1.861,19.126,6.336,24.573,10.895,27.609c3.031,2.035,6.199,2.976,9.992,2.976
			c0.938,0,1.93-0.054,3.121-0.17c2.594-0.252,9.096-1.412,13.459-6.714c4.938-6.004,4.35-16.56,3.068-29.735l-1.678-17.252
			c-2.03-20.86-2.396-24.619-3.066-28.786c-0.087-0.557-0.17-0.964-0.238-1.259c-0.05-0.006-0.4-0.05-0.404-0.05
			c-0.025,0-0.244-0.015-0.67-0.015c-0.782,0-1.799,0.05-2.591,0.127c-0.538,0.052-1.028,0.078-1.498,0.078
			c-5.563,0-8.479-3.92-8.832-7.562c-0.214-2.194,0.429-4.327,1.81-6.002c2.391-2.9,5.939-3.237,7.454-3.381
			c2.878-0.28,7.97-0.705,15.796-1.129l0.223-0.012c0.572-0.063,2.132-0.271,3.644-0.473c3.522-0.47,8.349-1.113,11.921-1.463
			c0.695-0.068,1.305-0.101,1.867-0.101c5.725,0,8.655,3.78,9.021,7.527c0.303,3.126-1.217,8.608-8.833,9.349
			c-0.667,0.065-1.036,0.132-1.818,0.333c-0.011,0.344-0.011,0.796,0.013,1.381c0.146,4.256,0.513,8.015,2.541,28.871l1.438,14.772
			c1.617,16.615,1.569,35.371-11.043,48.503c-11.025,11.507-23.02,14.012-32.236,14.909
			C301.481,138.887,298.59,139.125,295.296,139.125L295.296,139.125z"/>
		<path fill="#FCBF49" d="M253.811,69.417c-2.041-20.979-2.418-24.843-3.123-29.232c-0.732-4.666-2.052-6.767-6.7-7.29
			c-1.131-0.169-3.491-0.079-5.423,0.109c-1.518,0.148-2.373-0.048-2.467-1.014c-0.094-0.966,0.845-1.336,2.915-1.533
			c7.315-0.712,16.05-1.144,20.19-1.546c3.313-0.322,11.967-1.583,16.936-2.07c2.07-0.201,3.063-0.019,3.158,0.947
			c0.094,0.966-0.708,1.323-2.088,1.457c-1.519,0.148-2.333,0.366-3.963,0.804c-3.658,1.052-4.535,3.506-4.341,8.364
			c0.153,4.443,0.53,8.308,2.571,29.286l1.879,19.322c1.947,20.012,6.77,28.042,14.068,32.904c6.708,4.502,13.11,4.437,17.803,3.98
			c6.072-0.591,13.338-3.248,18.321-9.306c6.853-8.33,6.058-20.791,4.675-35.007l-1.678-17.252
			c-2.041-20.979-2.418-24.843-3.123-29.232c-0.732-4.666-2.052-6.767-6.7-7.29c-1.132-0.168-3.491-0.078-5.009,0.069
			c-1.519,0.148-2.373-0.048-2.467-1.014c-0.095-0.966,0.845-1.336,2.777-1.52c7.039-0.685,15.774-1.117,15.912-1.13
			c1.656-0.161,10.311-1.421,15.693-1.949c1.932-0.188,2.925-0.006,3.02,0.96c0.094,0.966-0.708,1.323-2.364,1.484
			c-1.519,0.148-2.333,0.366-3.962,0.804c-3.659,1.052-4.535,3.506-4.342,8.364c0.154,4.443,0.53,8.308,2.571,29.286l1.437,14.768
			c1.49,15.32,1.557,31.753-9.07,42.818c-8.979,9.372-18.769,11.857-27.74,12.73c-7.314,0.712-20.604,1.587-31.565-6.542
			c-7.657-5.664-13.896-15.367-15.842-35.379L253.811,69.417z"/>
		<path fill="none" stroke="#BF4F1F" stroke-width="4" d="M262.905,38.412c0.153,4.443,0.53,8.308,2.571,29.286l1.879,19.322
			c1.947,20.012,6.77,28.042,14.068,32.904"/>
		<path fill="#BF4F1F" d="M411.155,132.856c-5.685-0.04-11.097-0.232-15.445-0.387c-2.589-0.092-4.824-0.171-6.182-0.181l-0.259,0
			c-1.32,0-3.609,0.057-6.031,0.118c-3.339,0.083-7.123,0.179-10.238,0.179l-0.945-0.003c-2.033-0.014-3.728-0.367-5.18-1.079
			c-2.941-1.443-4.756-4.347-4.732-7.578c0.027-3.97,2.968-8.243,9.357-8.243l0.232,0.001c0.602,0,1.146-0.034,1.626-0.085
			c0.038-0.26,0.079-0.568,0.119-0.931l0.013-0.11c0.682-5.396,0.76-16.506,0.85-29.372l0.172-24.404
			c0.148-20.957,0.175-24.733-0.059-28.948c-0.033-0.618-0.085-1.079-0.139-1.415c-0.521-0.083-1.298-0.164-2.371-0.171
			c-6.471-0.045-9.387-4.517-9.357-8.653c0.01-1.376,0.557-8.24,10.415-8.24l0.153,0c2.941,0.021,6.731,0.166,10.396,0.306
			c3.024,0.116,5.882,0.225,7.644,0.237l0.308,0.001c1.455,0,3.757-0.061,6.194-0.124c3.082-0.081,6.575-0.172,9.455-0.172
			l0.97,0.004c9.82,0.069,10.052,7.529,10.046,8.38c-0.029,4.104-2.97,8.521-9.358,8.521c0,0-0.125,0-0.127,0
			c-0.64,0-1.174,0.038-1.977,0.147c-0.046,0.341-0.093,0.788-0.13,1.368c-0.296,4.25-0.322,8.025-0.47,28.982l-0.173,24.531
			c-0.09,12.806-0.167,23.873,0.31,29.509c0.02,0.183,0.039,0.345,0.059,0.488c1.692,0.222,3.934,0.422,5.391,0.433
			c6.471,0.045,9.388,4.374,9.36,8.375c-0.029,4.102-3.104,8.518-9.786,8.518L411.155,132.856z"/>
		<path fill="#FCBF49" d="M381.712,60.831c0.148-21.076,0.176-24.958-0.07-29.397c-0.244-4.716-1.614-7.083-4.659-7.798
			c-1.523-0.427-3.324-0.578-4.988-0.59c-1.387-0.01-2.217-0.293-2.209-1.402c0.006-0.832,1.117-1.101,3.336-1.091
			c5.27,0.037,14.001,0.515,18.021,0.543c3.467,0.024,11.65-0.334,16.92-0.292c1.802,0.013,2.909,0.297,2.903,1.129
			c-0.008,1.109-0.842,1.381-2.229,1.371c-1.386-0.01-2.496,0.121-4.162,0.387c-3.749,0.667-4.875,3.016-5.187,7.867
			c-0.309,4.435-0.336,8.317-0.484,29.393l-0.172,24.404c-0.094,13.45-0.172,24.403,0.341,30.37c0.39,3.747,1.343,6.25,5.499,6.833
			c1.939,0.291,4.987,0.589,7.067,0.604c1.525,0.011,2.216,0.432,2.211,1.125c-0.007,0.971-1.119,1.379-2.645,1.368
			c-9.151-0.064-17.884-0.542-21.627-0.568c-3.189-0.022-11.927,0.332-17.474,0.293c-1.803-0.013-2.77-0.436-2.764-1.406
			c0.006-0.693,0.563-1.105,2.227-1.094c2.08,0.015,3.746-0.25,4.996-0.519c2.776-0.535,3.625-2.887,4.069-6.905
			c0.734-5.819,0.812-16.772,0.906-30.222L381.712,60.831z"/>
		<path fill="#BF4F1F" d="M494.427,138.621c-1.175,0-2.584-0.07-4.433-0.22c-7.626-0.62-13.557-1.261-18.788-1.826
			c-1.64-0.177-3.196-0.345-4.696-0.501l-0.159-0.018c-6.49-0.819-11.274-1.327-16.51-1.752c-1.434-0.116-4.413-0.358-7.591-0.484
			l-0.149-0.006l-0.149-0.012c-1.494-0.121-3.177-0.187-4.805-0.25c-1.682-0.065-3.27-0.127-4.754-0.248
			c-2.026-0.165-3.689-0.642-5.084-1.458c-2.83-1.657-4.425-4.688-4.161-7.912c0.293-3.64,3.189-7.567,8.854-7.567
			c0.365,0,0.767,0.016,1.206,0.051c0.424,0.034,0.85,0.052,1.266,0.052c0.106,0,0.212-0.001,0.317-0.003
			c0.121-0.44,0.266-1.021,0.437-1.788c1.073-5.355,1.943-16.072,2.951-28.475l1.977-24.326c1.698-20.89,2.004-24.654,2.082-28.875
			c0.013-0.563,0.005-0.979-0.012-1.281c-0.048-0.015-0.399-0.125-0.399-0.125c-0.218-0.074-1.147-0.295-2.804-0.43
			c-1.216-0.099-3.032-0.347-4.764-1.355c-2.778-1.618-4.341-4.623-4.077-7.842c0.308-3.811,3.261-7.663,9.163-7.663
			c0.525,0,1.097,0.026,1.744,0.079c3.798,0.309,8.21,0.803,12.102,1.238c2.841,0.318,5.294,0.593,6.793,0.715
			c1.359,0.11,4.179,0.257,7.164,0.413c4.007,0.209,8.549,0.445,11.664,0.697c9.795,0.796,9.468,8.375,9.398,9.236
			c-0.304,3.712-3.236,7.699-8.961,7.699c-0.419,0-0.882-0.02-1.389-0.061c-0.695-0.057-1.574-0.089-2.412-0.089
			c-0.288,0-0.564,0.004-0.824,0.011c-0.07,0.333-0.148,0.77-0.228,1.333c-0.608,4.215-0.914,7.979-2.611,28.867l-1.977,24.328
			c-0.891,10.952-1.733,21.334-1.055,24.682c1.034,0.533,3.858,1.295,11.426,1.91c2.238,0.182,4.397,0.345,6.201,0.345
			c0,0,0,0,0.001,0c3.289,0,4.31-0.55,4.831-1.029c0.635-0.62,1.841-2.86,2.062-4.029c1.445-7.449,7.418-7.825,8.602-7.825
			c0.239,0,0.487,0.01,0.745,0.031c3.397,0.276,6.137,2.432,7.15,5.626c0.536,1.688,0.466,3.246,0.358,4.573
			c-0.158,1.95-2.041,12.857-3.777,17.613C504.334,136.238,500.766,138.621,494.427,138.621L494.427,138.621z"/>
		<path fill="#FCBF49" d="M462.631,88.189c-1.438,17.691-2.212,27.228,0.488,29.952c2.181,2.264,5.696,3.523,16.477,4.399
			c7.325,0.595,12.727,0.895,16.485-2.556c1.805-1.662,3.777-5.397,4.268-8.001c0.239-1.232,0.583-2.04,1.688-1.95
			c0.968,0.079,1.05,0.781,0.915,2.439c-0.123,1.521-1.934,11.808-3.364,15.727c-1.077,2.973-1.824,3.608-9.011,3.024
			c-9.952-0.809-17.116-1.669-23.325-2.313c-6.197-0.782-11.161-1.324-16.828-1.785c-1.521-0.124-4.562-0.371-7.89-0.502
			c-3.179-0.258-6.795-0.274-9.559-0.499c-1.797-0.146-2.731-0.639-2.652-1.606c0.056-0.691,0.643-1.061,2.301-0.926
			c2.073,0.168,3.755,0.027,5.021-0.148c2.809-0.328,3.747-3.313,4.625-7.276c1.163-5.749,2.051-16.667,3.084-29.383l1.977-24.326
			c1.707-21.008,2.021-24.878,2.104-29.324c0.105-4.722-0.821-7.023-5.304-8.361c-1.083-0.366-2.73-0.639-4.527-0.785
			c-1.521-0.124-2.327-0.467-2.248-1.435c0.078-0.967,1.068-1.165,3.142-0.995c6.496,0.528,15.17,1.65,18.901,1.954
			c3.317,0.27,13.44,0.674,18.831,1.11c1.935,0.157,2.88,0.512,2.802,1.479c-0.079,0.968-0.931,1.177-2.59,1.042
			c-1.52-0.124-3.742-0.165-5.424-0.023c-3.788,0.388-5.084,2.648-5.754,7.463c-0.636,4.4-0.95,8.271-2.657,29.279L462.631,88.189z"
			/>
		<path fill="#BF4F1F" d="M577.348,152.894c-6.293,0-12.905-0.74-19.654-2.201c-5.139-1.112-10.702-2.748-15.96-4.328l-1.458-0.439
			c-4.276-1.288-8.316-2.504-11.099-3.106c-1.401-0.304-4.319-0.935-7.46-1.479l-0.147-0.025l-0.146-0.032
			c-1.465-0.317-3.125-0.604-4.729-0.881c-1.658-0.286-3.225-0.557-4.681-0.872c-7.693-1.665-8.605-7.384-7.932-10.5
			c0.833-3.855,4.153-6.445,8.261-6.445c0.844,0,1.728,0.103,2.701,0.313c0.572,0.124,1.096,0.205,1.564,0.257
			c0.179-0.424,0.398-0.982,0.668-1.716c1.766-5.161,4.038-15.661,6.667-27.812l5.168-23.878c4.436-20.5,5.231-24.181,5.865-28.35
			c0.086-0.556,0.133-0.969,0.156-1.27c-0.046-0.021-0.38-0.177-0.38-0.177c-0.289-0.124-1.708-0.575-3.534-0.97
			c-7.374-1.597-8.219-7.212-7.556-10.278c0.847-3.899,4.22-6.514,8.394-6.514c1.003,0,2.057,0.131,3.416,0.426
			c4.262,0.922,9.003,2.096,12.813,3.039c2.748,0.68,5.12,1.268,6.613,1.59c1.66,0.359,4.157,0.826,7.049,1.367
			c4.047,0.757,9.085,1.698,13.908,2.741c17.973,3.89,42.583,9.215,55.62,30.486c5.332,8.643,10.814,23.059,6.596,42.554
			c-3.528,16.304-13.02,30.56-26.04,39.111C606.723,147.007,595.142,152.893,577.348,152.894L577.348,152.894z M550.378,125.405
			c0.841,0.854,3.661,3.095,11.196,4.726c4.958,1.073,9.182,1.594,12.913,1.594c5.736,0,10.483-1.198,15.39-3.885
			c7.156-3.88,12.09-12.541,15.108-26.491c3.605-16.664-2.016-27.323-4.6-31.133c-8.629-12.76-21.895-16.89-31.122-18.887
			c-0.982-0.212-2.282-0.427-3.499-0.59c-1.3,5.663-3.334,15.066-5.17,23.553l-3.695,17.077
			c-3.099,14.319-5.188,24.631-5.583,27.063C550.614,122.451,550.412,124.429,550.378,125.405L550.378,125.405z"/>
		<path fill="#FCBF49" d="M536.147,71.273c4.457-20.601,5.278-24.395,5.946-28.791c0.726-4.667,0.11-7.069-4.156-8.986
			c-1.025-0.506-3.301-1.14-5.198-1.55c-1.49-0.323-2.245-0.77-2.04-1.719c0.206-0.948,1.213-1.014,3.246-0.573
			c7.184,1.554,15.634,3.809,19.429,4.63c4.201,0.909,12.827,2.35,20.959,4.108c16.94,3.666,39.574,8.564,51.003,27.211
			c5.252,8.514,9.188,21.141,5.697,37.269c-3.695,17.077-13.693,28.533-22.955,34.616c-7.612,5.021-23.789,11.593-48.862,6.167
			c-4.879-1.056-10.348-2.665-15.41-4.186c-5.062-1.521-9.717-2.954-13.105-3.687c-1.491-0.323-4.473-0.968-7.755-1.536
			c-3.117-0.674-6.699-1.166-9.41-1.752c-1.762-0.381-2.622-0.993-2.417-1.942c0.146-0.678,0.777-0.967,2.403-0.615
			c2.033,0.44,3.718,0.521,4.996,0.514c2.828,0.044,4.15-2.791,5.544-6.604c1.909-5.545,4.226-16.252,6.924-28.721L536.147,71.273z
			 M549.862,89.848c-3.108,14.366-5.231,24.831-5.653,27.435c-0.598,3.417-1.5,8.897-0.738,10.623
			c1.205,2.956,5.875,6.946,16.581,9.263c13.824,2.992,23.627,2.275,33.283-3.013c10.287-5.577,15.667-17.324,18.688-31.283
			c3.725-17.212-1.054-29.879-5.679-36.697c-9.889-14.625-24.986-19.594-35.558-21.882c-2.711-0.586-7.813-1.265-9.015-0.958
			c-1.337,0.278-1.891,0.868-2.213,2.358c-1.133,4.579-3.685,16.37-6.001,27.077L549.862,89.848z"/>
		<path fill="none" stroke="#BF4F1F" stroke-width="4" d="M604.116,134.481c9.773-5.83,17.463-17.432,20.82-32.949
			c3.607-16.67-0.749-29.317-5.688-36.983"/>
		<line fill="none" stroke="#BF4F1F" stroke-width="4" x1="391.596" y1="30.357" x2="391.596" y2="115.853"/>
		<line fill="none" stroke="#BF4F1F" stroke-width="4" x1="460.001" y1="32.188" x2="453.638" y2="117.447"/>
		<line fill="none" stroke="#BF4F1F" stroke-width="4" x1="552.985" y1="43.193" x2="534.818" y2="126.736"/>
		<line fill="none" stroke="#BF4F1F" stroke-width="4" x1="160.588" y1="56.651" x2="181.359" y2="139.585"/>
	</g>
	<g>
		<path fill="#BF4F1F" d="M287.55,243.967c-2.525,0-4.874-1.098-6.444-3.013c-1.733-2.115-2.346-4.99-1.725-8.095l2.128-9.794
			l0.026-0.108c1.814-7.256,8.211-7.256,10.313-7.256h39.378c10.799,0,11.638,6.997,11.638,9.141c0,7.964-7.899,9.375-12.144,10.133
			l-0.229,0.038c-6.115,0.917-30.728,5.277-34.863,6.458l-0.231,0.062c-0.8,0.2-1.688,0.6-2.548,0.987
			C291.344,243.198,289.636,243.967,287.55,243.967L287.55,243.967z"/>
		<path fill="#EAE287" d="M331.227,222.901c2.496,0,4.438,0.277,4.438,1.941c0,1.941-2.357,2.357-6.239,3.051
			c-5.547,0.832-30.921,5.269-35.773,6.655c-2.773,0.693-4.992,2.219-6.102,2.219s-1.387-1.109-1.109-2.496l2.08-9.567
			c0.416-1.664,0.971-1.802,3.328-1.802H331.227z"/>
		<path fill="#BF4F1F" d="M439.24,274.194c-4.935,0-15.203,0-26.385-0.28l-0.797-0.04c-1.339-0.07-2.603-0.137-3.84-0.424
			c-4.521-1.048-6.544-4.695-6.544-7.844c0-0.489,0.095-3.392,2.229-5.669l-8.278-21.934h-22.813l-6.198,16.411
			c-0.42,1.05-0.742,2.032-0.98,2.883c7.194,0.075,9.121,5.245,9.121,8.309c0,3.189-2.014,8.587-9.558,8.587
			c-2.381,0-5.111-0.11-7.752-0.216c-2.438-0.098-4.958-0.2-6.945-0.2c-0.438,0-1.427,0.041-2.78,0.092
			c-3.182,0.121-8.506,0.324-13.581,0.324c-9.559,0-9.835-7.708-9.835-8.587c0-4.129,3.045-8.31,8.864-8.31
			c0.933,0,2.567-0.117,3.407-0.222c1.814-0.236,3.146-0.896,5.992-8.009l34.802-87.074c1.778-4.298,4.169-10.074,10.568-10.074
			c6.257,0,8.736,5.703,10.068,8.766c1.501,3.439,6.406,15.743,12.616,31.32c7.505,18.825,16.845,42.254,21.804,54.03
			c1.279,3.031,4.522,10.115,7.145,10.88c1.301,0.247,2.801,0.382,4.245,0.382c6.186,0,9.003,4.308,9.003,8.31
			C452.819,274.194,443.647,274.194,439.24,274.194L439.24,274.194z M387.661,216.672l-3.337-9.157l-3.424,9.157H387.661z"/>
		<path fill="#EAE287" d="M368.665,230.805c-0.693,0-0.971,0.277-1.248,1.109l-7.487,19.828c-1.387,3.467-2.08,6.794-2.08,8.458
			c0,2.496,1.248,4.298,5.546,4.298h2.08c1.664,0,2.08,0.277,2.08,1.109c0,1.109-0.832,1.387-2.357,1.387
			c-4.437,0-10.399-0.416-14.697-0.416c-1.525,0-9.151,0.416-16.361,0.416c-1.803,0-2.635-0.277-2.635-1.387
			c0-0.832,0.555-1.109,1.664-1.109c1.248,0,3.188-0.139,4.298-0.277c6.379-0.832,9.013-5.546,11.786-12.479l34.803-87.076
			c1.664-4.021,2.496-5.546,3.883-5.546c1.247,0,2.079,1.248,3.466,4.437c3.328,7.626,25.512,64.198,34.387,85.274
			c5.27,12.479,9.289,14.42,12.201,15.114c2.08,0.416,4.16,0.554,5.824,0.554c1.109,0,1.803,0.139,1.803,1.109
			c0,1.109-1.248,1.387-6.379,1.387c-4.992,0-15.113,0-26.205-0.277c-2.496-0.139-4.16-0.139-4.16-1.109
			c0-0.832,0.555-1.109,1.941-1.248c0.971-0.277,1.941-1.525,1.248-3.189l-11.094-29.395c-0.277-0.693-0.693-0.971-1.387-0.971
			H368.665z M396.951,223.872c0.693,0,0.832-0.416,0.693-0.832l-12.479-34.249c-0.139-0.554-0.277-1.248-0.693-1.248
			s-0.693,0.693-0.832,1.248l-12.756,34.109c-0.139,0.555,0,0.971,0.554,0.971H396.951z"/>
		<path fill="#BF4F1F" d="M443.543,243.967c-2.525,0-4.874-1.098-6.443-3.013c-1.734-2.115-2.348-4.99-1.727-8.095l2.155-9.902
			c1.814-7.256,8.212-7.256,10.313-7.256h39.377c10.798,0,11.638,6.997,11.638,9.141c0,7.964-7.898,9.375-12.142,10.133
			l-0.229,0.038c-6.117,0.917-30.73,5.277-34.863,6.458l-0.232,0.062c-0.8,0.2-1.688,0.6-2.548,0.987
			C447.337,243.198,445.629,243.967,443.543,243.967L443.543,243.967z"/>
		<path fill="#EAE287" d="M487.219,222.901c2.496,0,4.438,0.277,4.438,1.941c0,1.941-2.357,2.357-6.238,3.051
			c-5.547,0.832-30.922,5.269-35.773,6.655c-2.773,0.693-4.992,2.219-6.102,2.219s-1.387-1.109-1.109-2.496l2.08-9.567
			c0.416-1.664,0.971-1.802,3.328-1.802H487.219z"/>
		<line fill="none" stroke="#BF4F1F" stroke-width="4" x1="390.867" y1="177.101" x2="423.689" y2="256.044"/>
	</g>
	<path fill="#BF4F1F" d="M684.583,376.848c-3.187,0.001-5.972-1.727-7.45-4.62c-1.311-2.564-1.231-5.533,0.213-7.941
		c0.873-1.455,2.149-2.598,3.902-3.492c0.831-0.425,2.233-1.272,2.931-1.746c1.511-1.037,2.396-2.231,1.695-9.859l-8.608-93.378
		c-0.372-4.635-0.871-10.865,4.828-13.778c1.265-0.646,2.621-0.973,4.032-0.973c3.528,0,6.234,1.986,8.924,4.199
		c2.903,2.382,12.878,11.118,25.507,22.178c15.237,13.345,34.2,29.953,43.968,38.182c7.368,6.194,10.299,6.509,10.812,6.509
		c0.119,0,0.25-0.011,0.478-0.062c1.276-0.372,2.683-0.936,3.977-1.597c1.112-0.568,2.631-1.218,4.545-1.218
		c3.095,0,5.807,1.691,7.253,4.522c1.392,2.723,1.581,7.083-2.468,10.405c-1.171,0.961-2.722,1.887-5.72,3.418
		c-4.381,2.237-13.497,6.894-23.627,11.752l-0.729,0.328c-1.915,0.854-3.724,1.661-5.902,1.662c-3.027,0-5.749-1.649-7.104-4.304
		c-0.221-0.433-1.459-3.061-0.593-6.061l-17.348-15.771l-20.318,10.376l1.943,17.436c0.104,1.126,0.264,2.146,0.438,3.014
		c1.197-0.601,2.791-1.257,4.689-1.257c3.072,0,5.768,1.684,7.211,4.504c1.452,2.847,2.112,8.567-4.604,11.998
		c-2.121,1.083-4.602,2.226-7,3.332c-2.217,1.021-4.51,2.078-6.28,2.982c-0.392,0.2-1.255,0.688-2.44,1.351
		c-2.776,1.554-7.425,4.154-11.942,6.461C688.476,376.074,686.69,376.848,684.583,376.848L684.583,376.848z M705.279,302.902
		l6.021-3.075l-7.136-6.637L705.279,302.902z"/>
	<path fill="#FCBF49" d="M700.81,321.054c-0.617,0.315-0.738,0.688-0.606,1.556l2.35,21.064c0.342,3.718,1.238,6.997,1.995,8.479
		c1.135,2.223,3.066,3.26,6.895,1.305l1.852-0.945c1.482-0.758,1.979-0.699,2.357,0.041c0.504,0.988-0.11,1.613-1.469,2.308
		c-3.952,2.019-9.451,4.359-13.279,6.314c-1.358,0.693-7.961,4.532-14.383,7.812c-1.605,0.82-2.472,0.951-2.977-0.036
		c-0.379-0.741-0.011-1.24,0.978-1.745c1.111-0.567,2.777-1.574,3.702-2.201c5.302-3.643,5.504-9.039,4.82-16.475l-8.608-93.381
		c-0.348-4.338-0.3-6.075,0.935-6.706c1.111-0.567,2.42,0.166,5.105,2.375c6.433,5.278,51.921,45.572,69.41,60.306
		c10.368,8.717,14.833,8.618,17.741,7.911c2.042-0.576,3.957-1.398,5.438-2.155c0.988-0.504,1.669-0.696,2.11,0.168
		c0.505,0.988-0.48,1.803-5.05,4.136c-4.445,2.271-13.461,6.874-23.466,11.672c-2.286,1.012-3.768,1.769-4.209,0.904
		c-0.379-0.741-0.011-1.24,1.161-1.994c0.738-0.688,1.035-2.241-0.339-3.408l-23.249-21.135c-0.563-0.491-1.059-0.549-1.677-0.234
		L700.81,321.054z M722.849,302.014c0.617-0.315,0.552-0.749,0.239-1.056l-26.691-24.823c-0.376-0.431-0.814-0.985-1.185-0.796
		c-0.371,0.189-0.303,0.933-0.174,1.487l4.153,36.18c0.128,0.557,0.441,0.864,0.935,0.612L722.849,302.014z"/>
	<g>
		<path fill="#FCBF49" d="M674.344,372.384l-0.821-5.782c0,0,9.085,1.195,10.999,0.604s7.509-1.128,7.509-1.128l-6.428,3.569
			L674.344,372.384z"/>
	</g>
	<line fill="none" stroke="#BF4F1F" stroke-width="4" x1="694.206" y1="259.373" x2="758.333" y2="315.918"/>
</g>
</svg>
